<?xml version="1.0" encoding="UTF-8" standalone="no"?>
<!-- Created with Inkscape (http://www.inkscape.org/) -->

<svg
   xmlns:dc="http://purl.org/dc/elements/1.1/"
   xmlns:cc="http://creativecommons.org/ns#"
   xmlns:rdf="http://www.w3.org/1999/02/22-rdf-syntax-ns#"
   xmlns:svg="http://www.w3.org/2000/svg"
   xmlns="http://www.w3.org/2000/svg"
   xmlns:sodipodi="http://sodipodi.sourceforge.net/DTD/sodipodi-0.dtd"
   xmlns:inkscape="http://www.inkscape.org/namespaces/inkscape"
   width="210mm"
   height="297mm"
   viewBox="0 0 744.09448819 1052.3622047"
   id="svg2"
   version="1.1"
   inkscape:version="0.91 r13725"
   sodipodi:docname="rebelde2-30mm.svg">
  <defs
     id="defs4" />
  <sodipodi:namedview
     id="base"
     pagecolor="#ffffff"
     bordercolor="#666666"
     borderopacity="1.0"
     inkscape:pageopacity="0.0"
     inkscape:pageshadow="2"
     inkscape:zoom="1.1167367"
     inkscape:cx="381.96468"
     inkscape:cy="731.97277"
     inkscape:document-units="px"
     inkscape:current-layer="layer1"
     showgrid="false"
     inkscape:window-width="1215"
     inkscape:window-height="1000"
     inkscape:window-x="65"
     inkscape:window-y="24"
     inkscape:window-maximized="1" />
  <metadata
     id="metadata7">
    <rdf:RDF>
      <cc:Work
         rdf:about="">
        <dc:format>image/svg+xml</dc:format>
        <dc:type
           rdf:resource="http://purl.org/dc/dcmitype/StillImage" />
        <dc:title></dc:title>
      </cc:Work>
    </rdf:RDF>
  </metadata>
  <g
     inkscape:label="Capa 1"
     inkscape:groupmode="layer"
     id="layer1">
    <path
       style="fill:none;stroke:#000000;stroke-width:0.50106174"
       d="m 258.25096,333.18208 c -35.52184,-5.61104 -55.41851,-43.77493 -39.63072,-76.01582 3.77478,-7.70861 10.50913,-15.6752 17.10038,-20.22932 2.76966,-1.91364 3.01582,-1.82569 1.2085,0.43181 -2.98957,3.7342 -6.42935,10.13344 -8.04973,14.9754 -1.92699,5.75816 -2.53105,12.58158 -1.53752,17.36746 1.45283,6.99818 7.24973,15.09215 12.81183,17.88859 2.00876,1.00994 3.23436,1.25266 6.32542,1.25266 3.49306,0 4.02763,-0.139 6.01275,-1.5633 5.86847,-4.21058 7.8501,-15.10585 4.5081,-24.78613 -2.0593,-5.96482 -4.00176,-8.67014 -8.27351,-11.52271 -1.69118,-1.12933 -3.07487,-2.22366 -3.07487,-2.43186 0,-0.20819 1.29534,-1.77767 2.87855,-3.48773 l 2.87857,-3.10919 2.13205,1.4675 c 1.17263,0.80713 3.23773,2.64995 4.58909,4.09517 l 2.45705,2.62766 -0.31295,-2.69144 c -0.18587,-1.59848 -1.10565,-4.29224 -2.26502,-6.63358 l -1.95205,-3.94215 4.4833,-5.07696 c 2.4658,-2.79231 4.65915,-5.14165 4.87409,-5.22072 0.32693,-0.12026 2.79344,2.50267 8.68197,9.23267 0.92248,1.05428 0.91253,1.12218 -0.60598,4.1303 -1.45196,2.87631 -3.03612,7.85683 -3.03612,9.54539 0,0.42926 0.92333,-0.25399 2.1295,-1.57579 1.17124,-1.28351 3.25249,-3.16401 4.62502,-4.17888 l 2.49547,-1.84519 3.07477,3.40904 3.07476,3.40904 -2.8144,1.82223 c -6.79277,4.39807 -10.16984,11.4878 -10.2607,21.54106 -0.0514,5.68792 0.95395,9.48589 3.34025,12.61851 9.38259,12.31706 28.40753,-2.42043 28.40753,-22.0056 0,-7.75684 -3.0153,-15.82311 -8.7643,-23.44558 -1.7613,-2.33526 -3.08572,-4.24592 -2.94317,-4.24592 0.54034,0 6.56821,4.87861 9.83153,7.95706 4.27688,4.03461 7.47363,8.26945 9.87935,13.08755 6.06065,12.13811 7.36151,25.56935 3.77461,38.97245 -2.65297,9.91328 -6.4254,16.70278 -13.03068,23.45219 -6.98118,7.13351 -13.73042,10.9871 -23.7751,13.5748 -5.38928,1.38838 -16.07505,1.9664 -21.24762,1.14933 z"
       id="path3417"
       inkscape:connector-curvature="0" />
  </g>
</svg>
