<?xml version="1.0" encoding="UTF-8" standalone="no"?>
<svg
   xmlns:dc="http://purl.org/dc/elements/1.1/"
   xmlns:cc="http://creativecommons.org/ns#"
   xmlns:rdf="http://www.w3.org/1999/02/22-rdf-syntax-ns#"
   xmlns:svg="http://www.w3.org/2000/svg"
   xmlns="http://www.w3.org/2000/svg"
   xmlns:sodipodi="http://sodipodi.sourceforge.net/DTD/sodipodi-0.dtd"
   xmlns:inkscape="http://www.inkscape.org/namespaces/inkscape"
   version="1.1"
   id="svg4189"
   viewBox="0 0 744.09448 1052.3622"
   height="297mm"
   width="210mm"
   inkscape:version="0.91 r13725"
   sodipodi:docname="logo-mauricio.svg">
  <sodipodi:namedview
     pagecolor="#ffffff"
     bordercolor="#666666"
     borderopacity="1"
     objecttolerance="10"
     gridtolerance="10"
     guidetolerance="10"
     inkscape:pageopacity="0"
     inkscape:pageshadow="2"
     inkscape:window-width="1215"
     inkscape:window-height="1000"
     id="namedview7"
     showgrid="false"
     inkscape:zoom="0.45414923"
     inkscape:cx="225.2089"
     inkscape:cy="457.75636"
     inkscape:window-x="65"
     inkscape:window-y="24"
     inkscape:window-maximized="1"
     inkscape:current-layer="svg4189" />
  <defs
     id="defs4191" />
  <metadata
     id="metadata4194">
    <rdf:RDF>
      <cc:Work
         rdf:about="">
        <dc:format>image/svg+xml</dc:format>
        <dc:type
           rdf:resource="http://purl.org/dc/dcmitype/StillImage" />
        <dc:title></dc:title>
      </cc:Work>
    </rdf:RDF>
  </metadata>
  <g
     transform="matrix(-0.28543483,0,0,0.28543483,500.74451,99.943344)"
     id="layer1">
    <path
       style="fill:#000000"
       d="m 530.36699,727.22687 c 13.46639,-6.47448 24.52823,-14.25153 24.52823,-17.245 0,-0.93437 -8.46436,-2.31123 -18.80969,-3.05947 -12.46174,-0.90167 -25.98223,-4.90792 -40.06277,-11.87198 l -21.25309,-10.51116 21.2578,1.47268 c 11.69179,0.81008 49.07612,7.50138 83.0763,14.86966 106.41729,23.06145 145.12996,21.28133 174.43266,-8.02138 14.02612,-14.02623 14.02612,-14.02623 37.69206,-7.75615 66.27201,-9.07774 96.4418,-26.90191 99.21689,-94.94806 -2.9656,-19.49275 -17.50233,-48.17312 -29.6079,-58.41513 -5.48264,-4.63844 -18.06278,-12.24546 -27.95583,-16.90452 -16.90806,-7.96284 -20.83284,-8.45112 -65.40861,-8.13879 -41.65668,0.29107 -54.57723,1.84517 -106.28899,12.77855 -55.0259,11.63456 -62.60287,12.45608 -116.10029,12.59017 -56.71103,0.14063 -57.00903,0.17988 -32.70431,4.1855 33.70219,5.55451 107.51993,5.35828 158.6159,-0.42156 71.94416,-8.13781 98.24444,-5.74516 113.32793,10.31037 9.93724,10.57788 5.39821,23.01139 -11.99712,32.86325 -18.89596,10.70215 -49.32904,9.90678 -110.55229,-2.88943 -58.19881,-12.16405 -112.81053,-13.8058 -157.57049,-4.7369 -33.34622,6.75606 -33.26404,6.76195 -35.58179,-2.47276 -5.58672,-22.25921 -48.56459,-27.55829 -113.63278,-14.00987 -22.25871,4.63452 -44.14963,9.13103 -48.64647,9.99181 -4.49684,0.8611 8.7484,0.59162 29.43387,-0.59882 20.68548,-1.19043 43.49672,-2.1297 50.69167,-2.08784 28.86358,0.17007 39.96597,8.85306 27.39323,21.4259 -6.13756,6.13729 -9.38679,6.61215 -33.44774,4.88668 -14.65729,-1.05145 -47.98925,-2.54439 -74.07093,-3.31752 -45.71886,-1.35592 -46.12979,-1.31145 -11.44651,1.24014 19.7861,1.45567 49.21998,5.91196 65.40861,9.90286 36.37222,8.96687 69.19783,7.68191 129.18201,-5.05739 67.91506,-14.42325 113.13949,-11.34087 119.32012,8.13258 4.59021,14.4625 -10.13984,26.89308 -41.33867,34.88601 -24.05821,6.16339 -36.675,5.16133 -128.67313,-10.21846 -79.99453,-13.37312 -144.53016,-19.47508 -179.61825,-16.98367 -14.5304,1.03182 -52.64115,6.38355 -84.69058,11.89259 -32.04947,5.50904 -68.84181,10.1645 -81.760763,10.34535 -22.36376,0.31396 -22.86234,0.48239 -10.407327,3.54155 8.891187,2.18399 32.30897,1.89031 73.104,-0.9167 47.67813,-3.28057 63.1215,-3.30084 75.09192,-0.0981 20.28151,5.42426 25.49749,9.85864 17.84982,15.17505 -10.45239,7.26592 -25.6774,8.51883 -65.07084,5.35566 -21.3602,-1.71533 -46.19519,-1.98842 -55.18888,-0.60699 l -16.35215,2.51169 16.73281,0.43693 c 9.20302,0.23874 36.25804,4.11617 60.12231,8.61301 67.35242,12.69156 82.73002,10.91212 110.49218,-12.7851 9.32605,-7.96055 22.36729,-16.25953 28.98049,-18.44222 18.43404,-6.08365 59.03046,-1.90666 112.35048,11.5596 59.52595,15.03384 100.1392,17.73685 153.57889,10.2214 47.87865,-6.73316 64.47997,-6.63635 78.37676,0.45786 16.57797,8.46257 20.03106,16.09772 10.73286,23.73091 -13.05942,10.72145 -33.89736,11.34839 -98.78957,2.97216 -80.62517,-10.40684 -124.40848,-10.01275 -170.06239,1.53122 -18.88673,4.77581 -43.16968,9.58759 -53.9621,10.693 -19.96745,2.04532 -36.16749,7.38986 -22.89301,7.5524 3.59747,0.0457 21.12956,-2.11858 38.96021,-4.80622 59.46868,-8.96328 91.4721,-5.09567 106.37003,12.85543 3.82902,4.61356 0.97008,5.11394 -28.01745,4.90331 -17.75487,-0.1308 -36.69669,1.21889 -42.09289,2.99605 -9.1782,3.02192 -8.74187,3.24855 6.76203,3.51183 9.11532,0.15372 27.51149,3.18957 40.88038,6.74488 30.84239,8.20165 53.29514,8.26082 70.09309,0.18315 z m 230.56535,-93.62548 c -15.28925,-4.58776 -40.30805,-9.23504 -55.59732,-10.32769 -19.29053,-1.37849 -25.29625,-2.70727 -19.62258,-4.3415 16.22785,-4.67508 54.62048,-2.93227 87.03024,3.95003 39.28801,8.34319 52.68055,6.79006 68.75178,-7.97266 18.77492,-17.24662 20.64995,-46.47739 4.39189,-68.46777 -6.72204,-9.09212 -6.74876,-9.39006 -0.54417,-6.06959 19.27298,10.31461 27.15224,60.97357 12.82029,82.42728 -16.51728,24.72471 -41.55788,27.50686 -97.23013,10.8019 z"
       id="path4808"
       inkscape:connector-curvature="0" />
  </g>
</svg>
