<?xml version="1.0" encoding="UTF-8" standalone="no"?>
<!-- Created with Inkscape (http://www.inkscape.org/) -->

<svg
   xmlns:dc="http://purl.org/dc/elements/1.1/"
   xmlns:cc="http://creativecommons.org/ns#"
   xmlns:rdf="http://www.w3.org/1999/02/22-rdf-syntax-ns#"
   xmlns:svg="http://www.w3.org/2000/svg"
   xmlns="http://www.w3.org/2000/svg"
   xmlns:sodipodi="http://sodipodi.sourceforge.net/DTD/sodipodi-0.dtd"
   xmlns:inkscape="http://www.inkscape.org/namespaces/inkscape"
   width="210mm"
   height="297mm"
   viewBox="0 0 744.09448819 1052.3622047"
   id="svg2"
   version="1.1"
   inkscape:version="0.91 r13725"
   sodipodi:docname="nube.svg">
  <defs
     id="defs4" />
  <sodipodi:namedview
     id="base"
     pagecolor="#ffffff"
     bordercolor="#666666"
     borderopacity="1.0"
     inkscape:pageopacity="0.0"
     inkscape:pageshadow="2"
     inkscape:zoom="0.78965208"
     inkscape:cx="316.57869"
     inkscape:cy="678.14676"
     inkscape:document-units="px"
     inkscape:current-layer="layer1"
     showgrid="false"
     inkscape:window-width="1215"
     inkscape:window-height="1000"
     inkscape:window-x="65"
     inkscape:window-y="24"
     inkscape:window-maximized="1" />
  <metadata
     id="metadata7">
    <rdf:RDF>
      <cc:Work
         rdf:about="">
        <dc:format>image/svg+xml</dc:format>
        <dc:type
           rdf:resource="http://purl.org/dc/dcmitype/StillImage" />
        <dc:title />
      </cc:Work>
    </rdf:RDF>
  </metadata>
  <g
     inkscape:label="Capa 1"
     inkscape:groupmode="layer"
     id="layer1">
    <path
       style="fill:none;fill-rule:evenodd;stroke:#000000;stroke-width:1px;stroke-linecap:butt;stroke-linejoin:miter;stroke-opacity:1"
       d="m 157.03119,202.62088 c 34.19227,-15.19657 82.31473,25.32761 82.31473,25.32761 0,0 44.32331,-56.98712 86.11387,-53.18798 41.79056,3.79915 69.65093,62.05265 69.65093,62.05265 0,0 34.19228,-46.85609 73.45009,-41.79056 39.25779,5.06552 46.85607,50.65522 46.85607,50.65522 0,0 65.15236,-16.75048 75.98283,16.46295 18.9957,58.2535 -34.19227,73.45007 -34.19227,73.45007 0,0 22.79484,25.32761 -2.53276,59.51988 -28.60411,38.61555 -126.63806,-26.59399 -126.63806,-26.59399 0,0 10.13104,62.05264 -81.04836,54.45435 -91.1794,-7.59828 -102.57682,-55.72074 -102.57682,-55.72074 0,0 -55.13116,58.82281 -102.57681,11.39743 -35.71793,-35.70266 22.79485,-87.38026 22.79485,-87.38026 -45.89067,-23.15292 -50.99399,-72.8969 -7.59829,-88.64663 z"
       id="path3336"
       inkscape:connector-curvature="0"
       sodipodi:nodetypes="ccscscscscscscc"
       inkscape:export-filename="/home/obijuan/Desktop/nube2.svg"
       inkscape:export-xdpi="54"
       inkscape:export-ydpi="54" />
  </g>
</svg>
