<?xml version="1.0" encoding="UTF-8" standalone="no"?>
<!-- Created with Inkscape (http://www.inkscape.org/) -->

<svg
   xmlns:dc="http://purl.org/dc/elements/1.1/"
   xmlns:cc="http://creativecommons.org/ns#"
   xmlns:rdf="http://www.w3.org/1999/02/22-rdf-syntax-ns#"
   xmlns:svg="http://www.w3.org/2000/svg"
   xmlns="http://www.w3.org/2000/svg"
   xmlns:sodipodi="http://sodipodi.sourceforge.net/DTD/sodipodi-0.dtd"
   xmlns:inkscape="http://www.inkscape.org/namespaces/inkscape"
   width="210mm"
   height="297mm"
   viewBox="0 0 744.09448819 1052.3622047"
   id="svg2"
   version="1.1"
   inkscape:version="0.91 r13725"
   sodipodi:docname="nube.svg">
  <defs
     id="defs4" />
  <sodipodi:namedview
     id="base"
     pagecolor="#ffffff"
     bordercolor="#666666"
     borderopacity="1.0"
     inkscape:pageopacity="0.0"
     inkscape:pageshadow="2"
     inkscape:zoom="0.78965208"
     inkscape:cx="156.12936"
     inkscape:cy="678.14676"
     inkscape:document-units="px"
     inkscape:current-layer="layer1"
     showgrid="false"
     inkscape:window-width="1215"
     inkscape:window-height="1000"
     inkscape:window-x="65"
     inkscape:window-y="24"
     inkscape:window-maximized="1" />
  <metadata
     id="metadata7">
    <rdf:RDF>
      <cc:Work
         rdf:about="">
        <dc:format>image/svg+xml</dc:format>
        <dc:type
           rdf:resource="http://purl.org/dc/dcmitype/StillImage" />
        <dc:title />
      </cc:Work>
    </rdf:RDF>
  </metadata>
  <g
     inkscape:label="Capa 1"
     inkscape:groupmode="layer"
     id="layer1">
    <path
       style="fill:none;fill-rule:evenodd;stroke:#000000;stroke-width:1px;stroke-linecap:butt;stroke-linejoin:miter;stroke-opacity:1"
       d="m -183.62517,-108.90872 c 34.19227,-15.19657 82.31473,25.327606 82.31473,25.327606 0,0 44.323313,-56.987116 86.113873,-53.187976 41.79056,3.79915 69.650934,62.052646 69.650934,62.052646 0,0 34.19228,-46.856086 73.450083,-41.790556 39.25779,5.06552 46.85607,50.655216 46.85607,50.655216 0,0 65.15236,-16.75048 75.98283,16.46295 18.9957,58.253498 -34.19227,73.450068 -34.19227,73.450068 0,0 22.79484,25.32761 -2.53276,59.51988 -28.60411,38.615556 -126.638053,-26.59399 -126.638053,-26.59399 0,0 10.13104,62.052646 -81.0483637,54.454356 C -84.847497,103.8432 -96.244917,55.720734 -96.244917,55.720734 c 0,0 -55.131163,58.822816 -102.576813,11.39743 -35.71793,-35.70266 22.79485,-87.380258 22.79485,-87.380258 -45.89067,-23.15292 -50.99399,-72.8969 -7.59829,-88.646626 z"
       id="path3336"
       inkscape:connector-curvature="0"
       sodipodi:nodetypes="ccscscscscscscc"
       inkscape:export-filename="/home/obijuan/Desktop/nube2.svg"
       inkscape:export-xdpi="54"
       inkscape:export-ydpi="54" />
  </g>
</svg>
