<?xml version="1.0" encoding="UTF-8" standalone="no"?>
<svg
   xmlns:dc="http://purl.org/dc/elements/1.1/"
   xmlns:cc="http://creativecommons.org/ns#"
   xmlns:rdf="http://www.w3.org/1999/02/22-rdf-syntax-ns#"
   xmlns:svg="http://www.w3.org/2000/svg"
   xmlns="http://www.w3.org/2000/svg"
   version="1.1"
   id="svg2"
   viewBox="0 0 744.09448819 1052.3622047"
   height="297mm"
   width="210mm">
  <defs
     id="defs4" />
  <metadata
     id="metadata7">
    <rdf:RDF>
      <cc:Work
         rdf:about="">
        <dc:format>image/svg+xml</dc:format>
        <dc:type
           rdf:resource="http://purl.org/dc/dcmitype/StillImage" />
        <dc:title></dc:title>
      </cc:Work>
    </rdf:RDF>
  </metadata>
  <g
     style="display:inline"
     id="layer1" />
  <g
     id="layer2">
    <path
       id="path4668"
       d="m 205.15364,238.07954 c 0.95415,-0.23854 6.23512,-1.1696 7.59829,-2.53276 0.29848,-0.29849 -0.29849,-0.9679 0,-1.26639 0.29848,-0.29848 0.88881,0.18879 1.26638,0 2.80003,-1.40001 0.39298,-0.78597 1.26638,-2.53276 0.7259,-1.4518 2.64232,-1.76154 3.79914,-2.53276 1.09276,-0.7285 2.80999,-2.80999 3.79914,-3.79914 0.42213,-0.42213 0.9994,-0.73243 1.26638,-1.26638 0.18878,-0.37756 -0.37756,-1.0776 0,-1.26638 0.75512,-0.37756 1.77764,0.37756 2.53276,0 0.37756,-0.18878 -0.29849,-0.96789 0,-1.26638 0.29849,-0.29849 0.96789,0.29849 1.26638,0 0.29849,-0.29849 -0.29849,-0.96789 0,-1.26638 0.66744,-0.66744 1.74739,-0.7428 2.53276,-1.26638 0.99343,-0.66229 1.46486,-1.99881 2.53276,-2.53276 0.37757,-0.18878 0.88882,0.18878 1.26638,0 0.53396,-0.26698 0.84426,-0.84426 1.26639,-1.26638 0,-0.42213 -0.37757,-1.0776 0,-1.26638 0.75512,-0.37757 1.73183,0.26697 2.53276,0 1.13268,-0.37757 1.46485,-1.99881 2.53276,-2.53276 0.37756,-0.18879 0.88882,0.18878 1.26638,0 5.27037,-2.63519 -1.35381,0.0874 1.26638,-2.53277 0.66744,-0.66744 1.86532,-0.59894 2.53276,-1.26638 0.29849,-0.29848 -0.29849,-0.96789 0,-1.26638 0.29849,-0.29849 0.96789,0.29849 1.26638,0 0.66744,-0.66744 0.481,-2.00917 1.26638,-2.53276 0.70246,-0.46831 1.77764,0.37756 2.53276,0 1.06791,-0.53395 1.5776,-1.81639 2.53276,-2.53276 0.75513,-0.56634 1.86532,-0.59894 2.53276,-1.26638 0.29849,-0.29849 -0.37756,-1.0776 0,-1.26638 0.75513,-0.37756 1.73183,0.26698 2.53276,0 0.56635,-0.18878 0.76967,-0.93524 1.26638,-1.26638 0.84426,-0.42213 1.68851,-0.84425 2.53277,-1.26638 0.42212,0 0.88881,0.18878 1.26638,0 0.53395,-0.26698 0.73242,-0.9994 1.26638,-1.26638 0.37756,-0.18878 0.88882,0.18878 1.26638,0 0.53395,-0.26698 0.9994,-0.73243 1.26638,-1.26638 0.18878,-0.37756 -0.37756,-1.0776 0,-1.26638 0.75512,-0.37756 1.73183,0.26697 2.53276,0 0.56634,-0.18878 0.70004,-1.0776 1.26638,-1.26638 0.80093,-0.26698 1.73183,0.26697 2.53276,0 0.56634,-0.18878 0.73243,-0.99941 1.26638,-1.26638 0.75512,-0.37757 1.77764,0.37756 2.53276,0 0.53395,-0.26698 0.84426,-0.84426 1.26638,-1.26638 0.42213,-0.42213 0.84426,-0.84426 1.26638,-1.26638 0.42213,-0.42213 0.73243,-0.99941 1.26638,-1.26638 0.37757,-0.18879 0.84426,0 1.26638,0 0.84426,-0.42213 1.74739,-0.7428 2.53276,-1.26639 4.20006,-4.20005 -1.19395,0.59698 2.53277,-1.26638 0.53395,-0.26697 0.73242,-0.9994 1.26638,-1.26638 0.37756,-0.18878 0.96789,0.29849 1.26638,0 0.29849,-0.29849 -0.35123,-1.03222 0,-1.26638 2.0998,-1.39987 3.12827,-1.26638 5.06552,-1.26638 0.42213,0 0.88882,0.18878 1.26638,0 0.53395,-0.26697 0.76966,-0.93523 1.26638,-1.26638 0.78538,-0.52358 1.68851,-0.84425 2.53276,-1.26638 0.84425,-0.42213 1.61704,-1.03745 2.53276,-1.26638 0.81905,-0.20476 1.73183,0.26698 2.53276,0 0.56635,-0.18878 0.76967,-0.93524 1.26638,-1.26638 0.78538,-0.52358 1.6373,-0.96789 2.53276,-1.26638 0.40047,-0.13349 0.86592,0.13349 1.26639,0 0.89546,-0.29849 1.63729,-0.96789 2.53276,-1.26638 0.40046,-0.13349 0.88882,0.18878 1.26638,0 0.53395,-0.26698 0.73242,-0.9994 1.26638,-1.26638 0.79595,-0.39798 4.26957,0.39797 5.06552,0 0.75512,-0.37756 -0.59698,-1.93578 0,-2.53276 0.63319,-0.63319 3.16595,0.63319 3.79914,0 0.29849,-0.29849 -0.29849,-0.96789 0,-1.26638 0.29849,-0.29849 0.84425,0 1.26638,0 1.1889,0 5.60628,0.24187 6.3319,0 0.56635,-0.18878 0.70004,-1.0776 1.26638,-1.26638 0.80093,-0.26698 1.77764,0.37756 2.53277,0 0.37756,-0.18878 -0.29849,-0.96789 0,-1.26638 0.0574,-0.0574 5.7348,0 6.3319,0 0.42212,0 0.96789,0.29849 1.26638,0 0.29849,-0.29849 -0.29849,-0.9679 0,-1.26638 0.59698,-0.59698 1.77764,0.37756 2.53276,0 0.53395,-0.26698 0.73243,-0.99941 1.26638,-1.26638 1.0131,-0.50656 2.78604,0.50655 3.79914,0 0.53395,-0.26698 0.73243,-0.99941 1.26638,-1.26639 0.37756,-0.18878 0.84426,0 1.26638,0 0.42213,0 0.84426,0 1.26638,0 0.88082,0 5.87394,-0.22898 6.33191,0 3.72671,1.86336 -1.96579,1.26639 3.79914,1.26639 2.53276,0 5.06552,0 7.59828,0 1.26638,0 2.53276,0 3.79914,0 0.84426,0 1.71372,-0.20477 2.53276,0 0.91572,0.22893 1.61704,1.03745 2.53276,1.26638 0.99616,0.24904 6.28135,0 7.59829,0 4.22127,0 8.44253,0 12.6638,0 0.84426,0 1.68851,0 2.53276,0 0.42213,0 0.88882,-0.18878 1.26638,0 0.53396,0.26697 0.67753,1.16823 1.26638,1.26638 2.08192,0.34698 4.22127,0 6.33191,0 2.53276,0 5.06552,0 7.59828,0 1.26638,0 2.53276,0 3.79914,0 0.42213,0 0.88882,-0.18878 1.26638,0 0.53395,0.26697 0.73243,0.9994 1.26638,1.26638 0.80778,0.40389 5.99334,-0.33857 6.3319,0 0.29849,0.29849 -0.37756,1.0776 0,1.26638 0.75513,0.37756 1.73184,-0.26698 2.53277,0 0.56634,0.18878 0.76966,0.93523 1.26638,1.26638 0.78537,0.52358 1.63729,0.96789 2.53276,1.26638 0.40046,0.13349 0.84425,0 1.26638,0 0.42212,0.42213 0.73243,0.9994 1.26638,1.26638 0.37756,0.18878 0.96789,-0.29849 1.26638,0 0.29849,0.29849 -0.29849,0.96789 0,1.26638 0.29849,0.29849 0.96789,-0.29849 1.26638,0 0.29849,0.29849 -0.29849,0.96789 0,1.26638 0.29849,0.29849 0.88882,-0.18878 1.26638,0 0.53395,0.26698 0.73243,0.9994 1.26638,1.26638 0.37756,0.18878 0.96789,-0.29849 1.26638,0 0.29849,0.29849 -0.29849,0.96789 0,1.26638 0.29849,0.29849 0.84425,0 1.26638,0 0,0.42213 -0.29849,0.96789 0,1.26638 0.29849,0.29849 0.96789,-0.29849 1.26638,0 0.29849,0.29849 -0.18878,0.88882 0,1.26638 0.53395,1.06791 1.99881,1.46486 2.53276,2.53276 0.18878,0.37756 -0.18878,0.88882 0,1.26638 0.26698,0.53396 0.99941,0.73243 1.26638,1.26638 0.18878,0.37757 -0.29849,0.9679 0,1.26638 0.29849,0.29849 0.9679,-0.29848 1.26638,0 0.29849,0.29849 -0.29848,0.9679 0,1.26639 0.29849,0.29848 0.84426,0 1.26638,0 0,0.42212 -0.29848,0.96789 0,1.26638 0.29849,0.29848 0.9679,-0.29849 1.26639,0 0.44203,0.44203 -0.52567,3.5363 0,3.79914 0.75512,0.37756 1.77763,-0.37756 2.53276,0 0.37756,0.18878 0,0.84425 0,1.26638 0,1.26638 -0.40047,2.59775 0,3.79914 0.18878,0.56634 0.9994,0.73243 1.26638,1.26638 0.18878,0.37756 -0.18878,0.88882 0,1.26638 0.26697,0.53395 0.9994,0.73243 1.26638,1.26638 0.50655,1.01311 -0.50656,2.78604 0,3.79914 0.26697,0.53396 0.9994,0.73243 1.26638,1.26638 0.28175,0.56351 -0.19308,4.4863 0,5.06552 0.18878,0.56635 0.9994,0.73243 1.26638,1.26639 0.50655,1.0131 -0.50655,2.78603 0,3.79914 0.26697,0.53395 0.9994,0.73242 1.26638,1.26638 0.18878,0.37756 0,0.84425 0,1.26638 0,2.86105 0.18878,-0.56634 -1.26638,3.79914 -0.29035,0.87106 0.37359,3.05195 0,3.79914 -0.26698,0.53395 -0.93524,0.76967 -1.26638,1.26638 -0.52359,0.78538 -0.7428,1.74739 -1.26638,2.53276 -0.66229,0.99343 -1.68851,1.68851 -2.53276,2.53276 -0.42213,0.42213 -0.84426,0.84426 -1.26638,1.26638 -0.42213,0.42213 -0.99941,0.73243 -1.26638,1.26638 -0.18879,0.37757 0.18878,0.88882 0,1.26639 -0.16812,0.33623 -3.46291,3.63102 -3.79915,3.79914 -0.37756,0.18878 -0.84425,0 -1.26638,0 -0.84425,0.42212 -1.74738,0.74279 -2.53276,1.26638 -0.49671,0.33114 -0.73243,0.9994 -1.26638,1.26638 -0.75512,0.37756 -1.77764,-0.37756 -2.53276,0 -0.53395,0.26697 -0.73243,0.9994 -1.26638,1.26638 -0.33298,0.16649 -4.40331,0 -5.06552,0 -0.75397,0 -7.12321,0.23754 -7.59829,0 -0.37756,-0.18878 0.40953,-1.164 0,-1.26638 -1.63809,-0.40953 -3.42742,0.40952 -5.06552,0 -0.81904,-0.20476 0.75513,-2.1552 0,-2.53276 -5.76492,0 -0.0724,0.59697 -3.79914,-1.26638 -0.37756,-0.18878 -0.96789,0.29848 -1.26638,0 -0.29849,-0.29849 0.37756,-1.0776 0,-1.26638 -0.75512,-0.37757 -1.68851,0 -2.53276,0 -0.42213,0 -0.96789,0.29848 -1.26638,0 -0.29849,-0.29849 0.37756,-1.0776 0,-1.26638 -0.79595,-0.39798 -4.26957,0.39797 -5.06552,0 -0.53396,-0.26698 -0.68723,-1.1216 -1.26638,-1.26639 -1.6381,-0.40952 -3.42743,0.40953 -5.06553,0 -1.29502,-0.32375 -2.49018,-1.00458 -3.79914,-1.26638 -0.82786,-0.16557 -1.6885,0 -2.53276,0 -3.79914,0 -7.59828,0 -11.39742,0 -5.48765,0 -10.9753,0 -16.46295,0 -0.84425,0 -1.93578,0.59698 -2.53276,0 -0.42213,-0.42212 1.86336,-1.26638 1.26638,-1.26638 -1.33488,0 -2.50412,0.94263 -3.79914,1.26638 -0.51993,0.12999 -2.37925,-0.1535 -2.53276,0 -0.29849,0.29849 0.40046,1.1329 0,1.26638 -1.2014,0.40047 -2.57057,-0.30714 -3.79914,0 -0.57916,0.14479 -0.84426,0.84426 -1.26638,1.26639 -1.26638,0.42212 -2.50412,0.94262 -3.79915,1.26638 -0.81904,0.20476 -1.77763,-0.37757 -2.53276,0 -0.53395,0.26697 -0.73242,0.9994 -1.26638,1.26638 -0.37756,0.18878 -0.96789,-0.29849 -1.26638,0 -0.29849,0.29848 0.37756,1.0776 0,1.26638 -0.75512,0.37756 -1.77764,-0.37757 -2.53276,0 -0.37756,0.18878 0.29849,0.96789 0,1.26638 -4.94235,4.94234 -0.68011,-0.29314 -3.79914,1.26638 -5.27037,2.63518 1.35381,-0.0874 -1.26638,2.53276 -0.66744,0.66744 -1.86532,0.59894 -2.53276,1.26638 -0.59698,0.59698 0.37756,1.77764 0,2.53276 -0.53395,1.06791 -1.99881,1.46486 -2.53276,2.53276 -0.18878,0.37756 0.18878,0.88882 0,1.26638 -0.26698,0.53395 -1.0776,0.70004 -1.26638,1.26638 -0.26698,0.80093 0.4683,1.8303 0,2.53276 -0.52359,0.78538 -2.00918,0.48101 -2.53276,1.26638 -0.46831,0.70247 0.26697,1.73184 0,2.53276 -0.18879,0.56635 -0.99941,0.73243 -1.26639,1.26639 -0.50655,1.0131 0.50656,2.78603 0,3.79914 -0.26697,0.53395 -0.9994,0.73242 -1.26638,1.26638 -0.18878,0.37756 0.18879,0.88882 0,1.26638 -0.26697,0.53395 -0.9994,0.73243 -1.26638,1.26638 -0.50655,1.0131 0.50656,2.78604 0,3.79914 -0.18878,0.37756 -0.96789,-0.29849 -1.26638,0 -0.29849,0.29849 0,0.84425 0,1.26638 0,0.84425 0.37757,1.77764 0,2.53276 -0.18878,0.37756 -0.96789,-0.29849 -1.26638,0 -0.29849,0.29849 0.13349,0.86592 0,1.26638 -0.29849,0.89547 -0.96789,1.6373 -1.26638,2.53276 -0.23816,0.71449 0,2.967 0,3.79914 0,2.53277 0,5.06553 0,7.59829 0,0.59709 -0.0574,6.27451 0,6.3319 0.29849,0.29849 1.0776,-0.37756 1.26638,0 0.37756,0.75512 0,1.68851 0,2.53276 0,0.42213 -0.29849,0.96789 0,1.26638 0.29849,0.29849 0.96789,-0.29849 1.26638,0 0.051,0.051 0,4.60046 0,5.06552 0,0.42213 -0.37756,1.0776 0,1.26638 0.75513,0.37757 1.77764,-0.37756 2.53276,0 0.75513,0.37757 -0.37756,1.77764 0,2.53277 0.26698,0.53395 0.99941,0.73242 1.26638,1.26638 0.18879,0.37756 0,0.84425 0,1.26638 0,0.42212 0,0.84425 0,1.26638 0,2.53276 0,5.06552 0,7.59828 0,0.42213 0,0.84425 0,1.26638 0,0.42213 -0.18878,0.88882 0,1.26638 0.53396,1.06791 1.99881,1.46486 2.53277,2.53276 0.37756,0.75513 -0.26698,1.73183 0,2.53276 0.29848,0.89547 0.96789,1.6373 1.26638,2.53276 0.13348,0.40047 -0.29849,0.9679 0,1.26638 2.62018,2.62019 -0.10243,-4.00399 2.53276,1.26638 0.37756,0.75513 -0.37756,1.77764 0,2.53277 0.75983,1.51965 3.03931,2.27948 3.79914,3.79914 0.18878,0.37756 -0.18878,0.88882 0,1.26638 0.26698,0.53395 0.9994,0.73243 1.26638,1.26638 0.18878,0.37756 -0.29849,0.96789 0,1.26638 0.66744,0.66744 1.86532,0.59894 2.53276,1.26638 0.29849,0.29849 -0.18878,0.88882 0,1.26638 0.26698,0.53395 0.9994,0.73243 1.26638,1.26638 0.18878,0.37756 -0.18878,0.88882 0,1.26638 0.26698,0.53395 0.84425,0.84425 1.26638,1.26638 0.42213,0.42213 0.70004,1.0776 1.26638,1.26638 0.80093,0.26698 1.68851,0 2.53276,0 0.42213,0 0.88882,-0.18878 1.26638,0 5.27038,2.63519 -1.3538,-0.0874 1.26638,2.53276 0.66745,0.66744 1.86532,0.59894 2.53277,1.26638 0.29848,0.29849 -0.29849,0.9679 0,1.26638 0.29848,0.29849 0.96789,-0.29848 1.26638,0 0.59697,0.59698 -0.80093,2.26579 0,2.53277 1.20139,0.40046 2.53276,0 3.79914,0 0.42212,0 0.96789,-0.29849 1.26638,0 0.29849,0.29848 -0.29849,0.96789 0,1.26638 0.29849,0.29848 0.84425,0 1.26638,0 0.42213,0 0.84425,0 1.26638,0 4.22127,0 8.44254,0 12.6638,0 1.81807,0 4.8273,0.37615 6.33191,0 0.57915,-0.14479 0.70003,-1.0776 1.26638,-1.26638 0.80093,-0.26698 1.77763,0.37756 2.53276,0 0.37756,-0.18879 -0.29849,-0.9679 0,-1.26639 0.59698,-0.59697 1.77764,0.37757 2.53276,0 5.27037,-2.63518 -1.35381,0.0874 1.26638,-2.53276 0.24649,-0.24649 5.86948,0.23121 6.3319,0 0.37756,-0.18878 -0.29849,-0.96789 0,-1.26638 0.29849,-0.29849 0.85686,0.10238 1.26638,0 1.29503,-0.32375 2.50412,-0.94262 3.79914,-1.26638 2.53277,-0.63319 0,1.26638 3.79915,0 0.56634,-0.18878 0.84425,-0.84425 1.26638,-1.26638 1.26638,0 2.53276,0 3.79914,0 1.26638,0 2.55735,0.24836 3.79914,0 0.92557,-0.18511 1.65637,-0.91582 2.53276,-1.26638 1.23941,-0.49576 2.49018,-1.00459 3.79914,-1.26638 0.82786,-0.16557 1.68851,0 2.53276,0 0.84426,-0.42213 1.6373,-0.96789 2.53276,-1.26638 1.13975,-0.37991 2.6594,0.37991 3.79915,0 0.56634,-0.18878 0.73242,-0.9994 1.26638,-1.26638 1.0131,-0.50655 2.78603,0.50655 3.79914,0 0.53395,-0.26698 0.68099,-1.1493 1.26638,-1.26638 1.65572,-0.33114 3.37701,0 5.06552,0 0.84425,0 2.53276,-0.84425 2.53276,0 0,0.84425 -1.68851,0 -2.53276,0 -0.42213,0 0.96789,0.29849 1.26638,0 0.29849,-0.29849 -0.29849,-0.96789 0,-1.26638 0.29849,-0.29849 0.88882,0.18878 1.26638,0 1.06791,-0.53395 1.46486,-1.99881 2.53276,-2.53276 0.37756,-0.18878 0.88882,0.18878 1.26638,0 0.53396,-0.26698 0.76967,-0.93524 1.26638,-1.26638 0.78538,-0.52359 1.74739,-0.7428 2.53276,-1.26638 0.99343,-0.66229 1.53933,-1.87048 2.53277,-2.53276 1.15682,-0.77122 3.07324,-1.08096 3.79914,-2.53277 0.18878,-0.37756 -0.18878,-0.88881 0,-1.26638 1.56487,-3.12973 1.26638,0.43713 1.26638,-2.53276 0,-0.5729 -0.16875,-7.26079 0,-7.59828 0.26697,-0.53395 0.9994,-0.73243 1.26638,-1.26638 0.18878,-0.37756 -0.18878,-0.88882 0,-1.26638 0.53395,-1.06791 1.87047,-1.53933 2.53276,-2.53276 0.52358,-0.78538 0.59894,-1.86532 1.26638,-2.53276 3.07579,-3.07579 1.85958,0.37658 3.79914,-2.53276 0.52358,-0.78538 0.7428,-1.74739 1.26638,-2.53276 0.33114,-0.49672 0.99941,-0.73243 1.26638,-1.26639 1.12089,-2.24177 -1.88366,-0.43273 1.26638,-2.53276 0.78538,-0.52358 1.6373,-0.96789 2.53276,-1.26638 0.40047,-0.13349 1.0776,0.37756 1.26638,0 0.37757,-0.75512 -0.4683,-1.8303 0,-2.53276 3.08486,-4.62729 1.85385,1.35784 3.79915,-2.53276 0.18878,-0.37756 -0.18879,-0.88882 0,-1.26638 0.26697,-0.53395 0.93523,-0.76966 1.26638,-1.26638 0.52358,-0.78538 0.74279,-1.74739 1.26638,-2.53276 1.93191,-2.89786 1.00242,0.79186 2.53276,-3.79914 0.13349,-0.40047 -0.37756,-1.0776 0,-1.26638 0.75512,-0.37756 1.73183,0.26697 2.53276,0 3.95278,-1.3176 -0.42213,-0.84426 1.26638,-2.53276 0.66744,-0.66745 1.86532,-0.59894 2.53276,-1.26638 0.29849,-0.29849 -0.18878,-0.88882 0,-1.26639 0.26698,-0.53395 0.93524,-0.76966 1.26638,-1.26638 0.52358,-0.78537 0.7428,-1.74738 1.26638,-2.53276 0.66229,-0.99343 1.99881,-1.46485 2.53276,-2.53276 0.18878,-0.37756 -0.35123,-1.03222 0,-1.26638 1.11069,-0.74046 2.68845,-0.52592 3.79914,-1.26638 0.35123,-0.23415 -0.18878,-0.88882 0,-1.26638 0.26698,-0.53395 0.93524,-0.76966 1.26638,-1.26638 0.52359,-0.78538 0.7428,-1.74738 1.26638,-2.53276 0.33115,-0.49672 0.84426,-0.84425 1.26638,-1.26638 0.42213,-0.42213 0.73243,-0.99941 1.26639,-1.26638 0.37756,-0.18878 0.91515,0.23415 1.26638,0 0.99343,-0.66229 1.46485,-1.99881 2.53276,-2.53276 1.55672,-0.77837 3.44953,-0.61999 5.06552,-1.26638 0.55428,-0.22172 0.76966,-0.93524 1.26638,-1.26638 1.00209,-0.66806 6.48026,-3.42647 7.59828,-3.79915 0.80093,-0.26697 1.71372,0.20477 2.53276,0 2.59006,-0.64751 4.98037,-2.00917 7.59829,-2.53276 0.82786,-0.16557 1.71371,0.20477 2.53276,0 0.91572,-0.22893 1.63729,-0.96789 2.53276,-1.26638 0.40046,-0.13348 0.84425,0 1.26638,0 0.97388,0 6.42682,0.29287 7.59828,0 1.29503,-0.32375 2.50412,-0.94262 3.79914,-1.26638 0.40953,-0.10238 0.84426,0 1.26638,0 0.84426,0 1.68851,0 2.53277,0 0.84425,0 1.73183,-0.26697 2.53276,0 0.56634,0.18878 0.73242,0.99941 1.26638,1.26638 0.37756,0.18878 0.84425,0 1.26638,0 0.84425,0 1.73183,-0.26697 2.53276,0 2.54549,0.8485 -0.0127,2.95065 2.53276,3.79914 0.80093,0.26698 1.73183,-0.26697 2.53276,0 0.26689,0.089 3.56719,3.45122 3.79914,3.79915 0.52359,0.78537 0.7428,1.74738 1.26638,2.53276 0.66229,0.99343 1.99881,1.46485 2.53276,2.53276 0.18878,0.37756 -0.18878,0.88882 0,1.26638 0.26698,0.53395 0.99941,0.73243 1.26638,1.26638 0.37757,0.75512 -0.26697,1.73183 0,2.53276 3.05764,9.17292 -0.3651,-1.99658 2.53277,3.79914 0.37756,0.75513 -0.26698,1.73183 0,2.53276 0.29848,0.89547 0.96789,1.6373 1.26638,2.53276 0.13348,0.40047 -0.13349,0.86592 0,1.26638 0.29848,0.89547 0.96789,1.6373 1.26638,2.53277 0.40046,1.20139 -0.30715,2.57057 0,3.79914 0.22893,0.91572 1.03745,1.61704 1.26638,2.53276 0.30714,1.22857 -0.40047,2.59775 0,3.79914 0.29849,0.89547 0.74279,1.74738 1.26638,2.53276 0.33114,0.49672 1.0776,0.70004 1.26638,1.26638 0.40046,1.2014 -0.40047,2.59775 0,3.79914 0.29849,0.89547 0.96789,1.6373 1.26638,2.53276 0.13349,0.40047 0,0.84426 0,1.26638 0,0.84426 0,1.68851 0,2.53277 0,0.84425 0,1.6885 0,2.53276 0,0.84425 -0.26698,1.73183 0,2.53276 0.18878,0.56634 1.0776,0.70004 1.26638,1.26638 0.25102,0.75306 0,6.10242 0,7.59828 0,0.43765 0.17083,9.61854 0,10.13104 -0.18878,0.56635 -1.0776,0.70004 -1.26638,1.26639 -0.23271,0.69812 0,6.52357 0,7.59828 0,2.11063 0,4.22127 0,6.3319 0,0.84425 -0.16557,1.7049 0,2.53276 0.26179,1.30896 1.00459,2.49018 1.26638,3.79914 0.25134,1.2567 0,5.00139 0,6.33191 0,2.95488 0,5.90977 0,8.86466 0,0.84425 0.26698,1.73183 0,2.53276 -0.29849,0.89547 -0.96789,1.6373 -1.26638,2.53276 -0.23817,0.71449 0,2.967 0,3.79914 0,3.79914 0,7.59829 0,11.39743 0,1.33052 0.25134,5.07521 0,6.3319 -0.26179,1.30896 -0.94263,2.50412 -1.26638,3.79914 -0.30714,1.22857 0.30714,2.57057 0,3.79914 -0.22893,0.91573 -1.08127,1.60719 -1.26638,2.53276 -0.36647,1.83233 0.45854,5.76411 0,7.59829 -0.22893,0.91572 -1.03745,1.61704 -1.26638,2.53276 -0.20476,0.81905 0,1.68851 0,2.53276 0,1.26638 0,2.53276 0,3.79914 0,2.53276 0,5.06552 0,7.59828 0,1.26638 0.56634,2.66646 0,3.79915 -0.18878,0.37756 -0.9679,-0.29849 -1.26638,0 -0.29849,0.29848 0,0.84425 0,1.26638 0,0.70684 0.19323,5.7522 0,6.3319 -0.37757,1.13268 -1.99881,1.46485 -2.53276,2.53276 -0.18879,0.37756 0,0.84425 0,1.26638 0,0.84425 0.26697,1.73183 0,2.53276 -0.18879,0.56634 -0.99941,0.73243 -1.26639,1.26638 -0.37756,0.75513 0.37757,1.77764 0,2.53276 -0.26697,0.53396 -0.9994,0.73243 -1.26638,1.26638 -0.50655,1.01311 0.50656,2.78604 0,3.79915 -4.20005,4.20005 0.59698,-1.19396 -1.26638,2.53276 -0.26697,0.53395 -1.0776,0.70003 -1.26638,1.26638 -0.26697,0.80093 0.26698,1.73183 0,2.53276 -0.18878,0.56634 -0.84425,0.84425 -1.26638,1.26638 0,0.84425 0.20476,1.71371 0,2.53276 -1.52882,6.11528 -0.60181,-0.0628 -2.53276,3.79914 -0.18878,0.37756 0.23416,0.91515 0,1.26638 -1.62356,2.43535 -4.70834,3.89656 -6.3319,6.3319 -1.86243,2.79365 4.35331,-0.41562 -1.26638,3.79915 -1.06791,0.80092 -2.68845,0.52592 -3.79914,1.26638 -0.35123,0.23415 0.18878,0.88881 0,1.26638 -0.26698,0.53395 -0.99941,0.73242 -1.26638,1.26638 -0.37757,0.75512 0.37756,1.77763 0,2.53276 -0.26698,0.53395 -0.99941,0.73243 -1.26638,1.26638 -0.65421,1.30842 1.15056,2.99349 -1.26638,3.79914 -0.80093,0.26698 -1.71372,-0.20476 -2.53277,0 -8.53001,2.1325 -0.0196,0.0196 -2.53276,2.53276 -0.66744,0.66744 -1.74738,0.7428 -2.53276,1.26638 -0.49671,0.33114 -0.70004,1.0776 -1.26638,1.26638 -0.80093,0.26698 -1.73183,-0.26697 -2.53276,0 -3.95278,1.31759 0.42213,0.84426 -1.26638,2.53276 -0.66744,0.66744 -1.86532,0.59894 -2.53276,1.26638 -0.29849,0.29849 0.40046,1.1329 0,1.26638 -1.20139,0.40047 -2.55735,-0.24835 -3.79914,0 -5.09607,1.01922 -0.58185,0.92412 -3.79914,2.53276 -1.19396,0.59698 -2.60519,0.66941 -3.79915,1.26639 -1.51965,0.75982 -2.27948,3.03931 -3.79914,3.79914 -0.37756,0.18878 -0.86591,-0.13349 -1.26638,0 -9.17292,3.05764 1.99659,-0.36511 -3.79914,2.53276 -1.19395,0.59698 -2.55973,0.77062 -3.79914,1.26638 -0.87639,0.35056 -1.65637,0.91582 -2.53276,1.26638 -1.23941,0.49576 -2.60519,0.6694 -3.79914,1.26638 -1.36132,0.68066 -2.49404,1.7497 -3.79914,2.53276 -2.96989,1.78193 -2.70762,1.08305 -6.33191,2.53276 -0.96402,0.38561 -3.19518,1.32484 -3.79914,2.53276 -0.18878,0.37756 0.39194,1.10961 0,1.26638 -1.99848,0.7994 -4.28992,0.58572 -6.3319,1.26638 -0.56634,0.18878 -0.73243,0.99941 -1.26638,1.26638 -3.11904,1.55952 1.1432,-3.67596 -3.79914,1.26638 -0.29849,0.29849 0.40046,1.1329 0,1.26639 -1.2014,0.40046 -2.57058,-0.30715 -3.79914,0 -0.57916,0.14478 -0.76967,0.93523 -1.26639,1.26638 -1.00209,0.66806 -6.48026,3.42646 -7.59828,3.79914 -0.80093,0.26697 -1.71371,-0.20476 -2.53276,0 -1.29503,0.32375 -2.50411,0.94262 -3.79914,1.26638 -0.40952,0.10238 -0.86592,-0.13349 -1.26638,0 -0.89547,0.29849 -1.74739,0.74279 -2.53276,1.26638 -0.49672,0.33114 -0.681,1.1493 -1.26638,1.26638 -2.18876,0.43775 -7.90535,-0.55642 -10.13105,0 -0.57915,0.14479 -0.70003,1.0776 -1.26638,1.26638 -0.80093,0.26698 -1.71371,-0.20476 -2.53276,0 -0.91572,0.22893 -1.63729,0.96789 -2.53276,1.26638 -0.80093,0.26698 -1.68851,0 -2.53276,0 -1.68851,0 -3.37702,0 -5.06552,0 -0.84426,0 -1.77764,-0.37756 -2.53276,0 -0.37757,0.18878 0.40046,1.13289 0,1.26638 -1.2014,0.40046 -2.53276,0 -3.79915,0 -1.26638,0 -2.53276,0 -3.79914,0 -5.06552,0 -10.13104,0 -15.19656,0 -3.79914,0 -7.59829,0 -11.39743,0 -0.84425,0 -1.77764,0.37756 -2.53276,0 -0.37756,-0.18878 0.37756,-1.0776 0,-1.26638 -1.03665,-0.51833 -4.99133,0.44686 -6.3319,0 -0.89547,-0.29849 -1.74739,-0.7428 -2.53276,-1.26638 -0.49672,-0.33114 -0.68723,-1.12159 -1.26638,-1.26638 -0.27611,-0.069 -5.7557,0.2881 -6.33191,0 -0.53395,-0.26698 -0.73242,-0.99941 -1.26638,-1.26638 -0.37756,-0.18878 -0.88881,0.18878 -1.26638,0 -0.53395,-0.26698 -0.73242,-0.99941 -1.26638,-1.26638 -0.75512,-0.37756 -1.93578,0.59698 -2.53276,0 -0.29849,-0.29849 0.37756,-1.0776 0,-1.26638 -1.51024,-0.75513 -3.55527,0.75512 -5.06552,0 0,-1.3101 0.29849,-1.75033 -1.26638,-2.53276 -0.50211,-0.25106 -3.54025,0.25889 -3.79914,0 -0.29849,-0.29849 0,-0.84426 0,-1.26638 -0.84426,0 -1.77764,0.37756 -2.53276,0 -0.37756,-0.18879 0.29849,-0.9679 0,-1.26638 -0.2589,-0.2589 -3.29703,0.25105 -3.79914,0 -1.06791,-0.53396 -1.46486,-1.99881 -2.53277,-2.53277 -0.37756,-0.18878 -0.96789,0.29849 -1.26638,0 -0.29848,-0.29848 0.18878,-0.88881 0,-1.26638 -0.26697,-0.53395 -0.9994,-0.73242 -1.26638,-1.26638 -0.18878,-0.37756 0.29849,-0.96789 0,-1.26638 -0.29849,-0.29849 -1.0776,0.37756 -1.26638,0 -0.37756,-0.75512 0.37756,-1.77763 0,-2.53276 1.08363,-5.87525 -2.72292,-1.45654 -3.79914,-2.53276 -0.29849,-0.29849 0.18878,-0.88882 0,-1.26638 -0.26697,-0.53395 -0.9994,-0.73243 -1.26638,-1.26638 -0.18878,-0.37756 0.18878,-0.88882 0,-1.26638 -0.26698,-0.53395 -0.9994,-0.73243 -1.26638,-1.26638 -0.18878,-0.37756 0.18878,-0.88882 0,-1.26638 -0.26698,-0.53395 -0.9994,-0.73243 -1.26638,-1.26638 -0.18878,-0.37756 0.29849,-0.96789 0,-1.26638 -0.66744,-0.66744 -1.86532,-0.59894 -2.53276,-1.26638 -0.29849,-0.29849 0.18878,-0.88882 0,-1.26638 -0.26698,-0.53396 -0.99941,-0.73243 -1.26638,-1.26638 -0.18878,-0.37757 0.23415,-0.91515 0,-1.26639 -0.66229,-0.99343 -1.87048,-1.53933 -2.53276,-2.53276 -0.46831,-0.70246 0.37756,-1.77763 0,-2.53276 -0.26698,-0.53395 -0.93524,-0.76966 -1.26638,-1.26638 -0.52359,-0.78537 -0.59894,-1.86532 -1.26638,-2.53276 -0.29849,-0.29849 -0.91515,0.23416 -1.26638,0 -0.99343,-0.66229 -1.68851,-1.68851 -2.53277,-2.53276 -0.42212,-0.42213 -0.9994,-0.73243 -1.26638,-1.26638 -0.18878,-0.37756 0.23416,-0.91515 0,-1.26638 -2.74876,-4.12314 -2.3557,-0.73521 -3.79914,-5.06552 -0.13349,-0.40047 0.35123,-1.03223 0,-1.26638 -1.11069,-0.74046 -2.50411,-0.94263 -3.79914,-1.26638 -0.40952,-0.10238 -0.96789,0.29849 -1.26638,0 -0.29849,-0.29849 0.29849,-0.9679 0,-1.26638 -0.73015,-0.73015 -2.52114,0.84038 -3.79914,1.26638 -0.40047,0.13348 -0.88882,-0.18878 -1.26638,0 -1.06791,0.53395 -1.46486,1.9988 -2.53276,2.53276 -3.11904,1.55951 1.1432,-3.67597 -3.79914,1.26638 -0.29849,0.29849 0.18878,0.88882 0,1.26638 -0.53396,1.0679 -1.99881,1.46485 -2.53276,2.53276 -0.67666,1.3533 0.67665,1.17946 0,2.53276 -0.26698,0.53395 -0.93524,0.76967 -1.26639,1.26638 -0.52358,0.78538 -0.84425,1.68851 -1.26638,2.53276 -0.42212,0.84426 -0.96789,1.6373 -1.26638,2.53276 -0.40046,1.2014 0.40047,2.59775 0,3.79914 -0.37756,1.13269 -1.9988,1.46486 -2.53276,2.53277 -0.18878,0.37756 0,0.84425 0,1.26638 0,0.84425 0.20476,1.71371 0,2.53276 -0.22893,0.91572 -0.96789,1.63729 -1.26638,2.53276 -0.13349,0.40046 0.18878,0.88882 0,1.26638 -0.26697,0.53395 -0.9994,0.73243 -1.26638,1.26638 -0.37756,0.75512 0.37756,1.77764 0,2.53276 -0.26697,0.53395 -0.9994,0.73243 -1.26638,1.26638 -0.404,0.808 0.38947,5.55296 0,6.3319 -0.18878,0.37756 -1.0776,-0.37756 -1.26638,0 -0.099,0.19804 -0.15364,5.87099 0,6.33191 0.29849,0.89546 0.96789,1.63729 1.26638,2.53276 0.13349,0.40046 0,0.84425 0,1.26638 0,1.26638 -0.30714,2.57057 0,3.79914 0.14479,0.57915 1.0776,0.70004 1.26638,1.26638 0.26698,0.80093 0,1.68851 0,2.53276 0,0.42213 -0.18878,0.88882 0,1.26638 0.26698,0.53395 0.99941,0.73243 1.26638,1.26638 0.18878,0.37756 0,0.84425 0,1.26638 0,0.84426 -0.26697,1.73183 0,2.53276 0.18878,0.56635 0.93524,0.76967 1.26638,1.26638 0.52359,0.78538 0.7428,1.74739 1.26638,2.53276 0.33115,0.49672 1.0776,0.70004 1.26638,1.26638 0.26698,0.80093 -0.26697,1.73184 0,2.53277 0.37757,1.13268 1.99881,1.46485 2.53276,2.53276 1.55952,3.11903 -3.67596,-1.14321 1.26639,3.79914 0.66744,0.66744 1.86532,0.59894 2.53276,1.26638 0.8421,0.8421 -0.84211,1.69065 0,2.53276 0.66744,0.66744 2.00917,0.481 2.53276,1.26638 0.4683,0.70246 -0.26698,1.73183 0,2.53276 0.37756,1.13269 1.87047,1.53933 2.53276,2.53276 0.52358,0.78538 0.51126,1.96642 1.26638,2.53276 1.0679,0.80093 2.68845,0.52592 3.79914,1.26638 0.70246,0.46831 -0.59698,1.93579 0,2.53277 1.07622,1.07621 2.72293,1.45654 3.79914,2.53276 0.29849,0.29848 -0.40952,1.164 0,1.26638 1.63809,0.40952 3.42743,-0.40953 5.06552,0 0.40953,0.10238 -0.29848,0.96789 0,1.26638 0.66745,0.66744 1.74739,0.74279 2.53276,1.26638 5.34282,3.56188 -6.87942,-2.17333 5.06553,3.79914 3.41333,1.70667 4.18495,0.82609 7.59828,2.53276 0.53395,0.26698 0.76967,0.93524 1.26638,1.26638 0.78538,0.52358 1.86532,0.59894 2.53276,1.26638 0.29849,0.29849 0,0.84425 0,1.26638 0.42213,0.84426 0.51126,1.96642 1.26638,2.53276 1.06791,0.80093 2.60519,0.66941 3.79914,1.26638 0.53396,0.26698 0.84426,0.84426 1.26638,1.26638 0.84426,0.42213 1.65637,0.91583 2.53277,1.26638 2.57427,1.02972 4.10448,1.04782 6.3319,2.53277 0.49671,0.33114 0.7121,1.04466 1.26638,1.26638 1.61599,0.64639 3.41436,0.71599 5.06552,1.26638 0.89547,0.29849 1.68851,0.84425 2.53276,1.26638 0.84425,0.42212 1.72337,0.78074 2.53276,1.26638 1.30511,0.78306 2.58154,1.61956 3.79914,2.53276 0.47759,0.35818 0.73243,0.9994 1.26638,1.26638 4.11885,2.05942 3.01232,0.3197 6.33191,2.53276 0.49671,0.33114 0.68722,1.12159 1.26638,1.26638 1.22857,0.30714 2.55735,-0.24836 3.79914,0 0.92557,0.18512 1.63729,0.96789 2.53276,1.26638 1.65116,0.55039 3.44953,0.61999 5.06552,1.26638 0.55428,0.22171 0.73243,0.99941 1.26638,1.26638 1.19396,0.59698 2.55974,0.77062 3.79914,1.26638 4.36698,1.74679 0.73183,1.13275 6.33191,2.53276 0.40952,0.10238 0.86591,-0.13348 1.26638,0 2.15657,0.71886 4.14614,1.90826 6.3319,2.53276 0.81177,0.23194 1.68851,0 2.53276,0 0.84425,0 1.68851,0 2.53276,0 3.79914,0 7.59828,0 11.39743,0 2.53276,0 5.06552,0 7.59828,0 0.84425,0 1.73183,0.26698 2.53276,0 0.56634,-0.18878 0.73243,-0.9994 1.26638,-1.26638 0.37756,-0.18878 0.84425,0 1.26638,0 1.68851,0 3.42743,0.40953 5.06552,0 0.81905,-0.20476 -0.4683,-1.8303 0,-2.53276 0.66229,-0.99343 1.68851,-1.6885 2.53276,-2.53276 2.59668,-2.59667 0.52563,-1.57686 1.26639,-3.79914 0.29848,-0.89547 0.74279,-1.74738 1.26638,-2.53276 0.33114,-0.49672 1.0776,-0.70004 1.26638,-1.26638 0.26697,-0.80093 -0.20477,-1.71372 0,-2.53276 0.22893,-0.91572 0.96789,-1.6373 1.26638,-2.53276 0.13348,-0.40047 -0.13349,-0.86592 0,-1.26638 0.29849,-0.89547 0.96789,-1.6373 1.26638,-2.53276 0.26697,-0.80093 -0.46831,-1.8303 0,-2.53277 0.66228,-0.99343 1.87047,-1.53933 2.53276,-2.53276 0.23415,-0.35123 -0.23416,-0.91515 0,-1.26638 0.66229,-0.99343 1.81639,-1.57759 2.53276,-2.53276 0.56634,-0.75512 0.7428,-1.74738 1.26638,-2.53276 0.79006,-1.1851 4.25448,-4.25448 5.06552,-5.06552 0.84426,-0.84425 1.68851,-1.68851 2.53276,-2.53276 0.42213,-0.42213 0.76967,-0.93524 1.26638,-1.26638 1.57075,-1.04717 3.44674,-1.56149 5.06553,-2.53276 1.3051,-0.78307 2.43782,-1.85211 3.79914,-2.53276 1.19395,-0.59698 2.60518,-0.66941 3.79914,-1.26639 3.8619,-1.93095 -2.31614,-1.00394 3.79914,-2.53276 0.81905,-0.20476 1.73183,0.26698 2.53276,0 0.56634,-0.18878 0.84425,-0.84425 1.26638,-1.26638 1.26638,-0.42212 2.50412,-0.94262 3.79914,-1.26638 0.40953,-0.10238 0.84426,0 1.26638,0 2.11064,0 4.22127,0 6.33191,0 2.53276,0 5.06552,0 7.59828,0 0.42213,0 0.96789,-0.29849 1.26638,0 0.29849,0.29849 0,0.84426 0,1.26638 0.42213,0 0.96789,-0.29849 1.26638,0 0.29849,0.29849 -0.35123,1.03223 0,1.26638 1.11069,0.74046 2.85524,0.32248 3.79914,1.26638 0.59698,0.59698 -0.50655,1.85736 0,2.53277 2.60764,3.47684 8.3243,3.25877 11.39743,6.3319 0.89546,0.89546 -0.47033,2.62333 0,3.79914 3.36405,8.41014 1.86927,-2.65396 3.79914,5.06552 0.20476,0.81905 -0.20476,1.71372 0,2.53276 0.45786,1.83145 1.83164,3.31274 2.53276,5.06552 5.09909,12.74773 -0.98879,-2.68877 1.26638,6.33191 0.22893,0.91572 1.08126,1.60718 1.26638,2.53276 0.24836,1.24179 -0.20819,2.54999 0,3.79914 0.21945,1.31672 1.04693,2.48242 1.26638,3.79914 0.20819,1.24915 -0.30714,2.57057 0,3.79914 0.14479,0.57916 1.0776,0.70004 1.26638,1.26638 0.23271,0.69813 0,6.52358 0,7.59829 0,0.42212 -0.18878,0.88881 0,1.26638 0.26698,0.53395 1.26638,0.6694 1.26638,1.26638 0,0.9439 -1.08126,1.60718 -1.26638,2.53276 -0.24836,1.24179 0,2.53276 0,3.79914 0,0.84425 -0.16557,1.7049 0,2.53276 0.26179,1.30896 1.00459,2.49018 1.26638,3.79914 0.16557,0.82786 0,1.68851 0,2.53276 0,1.26638 0,2.53276 0,3.79914 0,3.79915 0,7.59829 0,11.39743 0,2.53276 0,5.06552 0,7.59828 0,1.26638 0.24836,2.55736 0,3.79914 -0.18511,0.92558 -1.08126,1.60719 -1.26638,2.53276 -0.24836,1.24179 0.30714,2.57058 0,3.79915 -0.14479,0.57915 -0.93524,0.76966 -1.26638,1.26638 -0.52358,0.78537 -0.84425,1.6885 -1.26638,2.53276 -0.84425,1.68851 -1.83165,3.31273 -2.53276,5.06552 -0.42213,1.26638 -0.84425,2.53276 -1.26638,3.79914 -0.42213,0.42213 -0.99941,0.73243 -1.26638,1.26638 -0.18878,0.37756 0.13349,0.86592 0,1.26638 -0.29849,0.89547 -0.96789,1.6373 -1.26638,2.53276 -0.13349,0.40047 0.29849,0.9679 0,1.26638 -0.66744,0.66745 -1.74739,0.7428 -2.53276,1.26638 -0.99343,0.66229 -1.46486,1.99881 -2.53276,2.53277 -0.37757,0.18878 -0.9679,-0.29849 -1.26639,0 -1.07621,1.07621 -1.29425,2.91449 -2.53276,3.79914 -0.25718,0.1837 -12.2643,4.82582 -12.6638,5.06552 -0.36197,0.21718 0.35123,1.03223 0,1.26638 -1.11069,0.74046 -2.60519,0.6694 -3.79914,1.26638 -1.36132,0.68066 -2.386,1.9675 -3.79914,2.53276 -0.78387,0.31355 -1.8303,-0.46831 -2.53277,0 -0.78537,0.52359 -0.51125,1.96642 -1.26638,2.53276 -1.0679,0.80093 -2.68845,0.52592 -3.79914,1.26638 -0.35123,0.23416 0.29849,0.96789 0,1.26638 -0.66744,0.66744 -1.74738,0.7428 -2.53276,1.26638 -0.49671,0.33115 -0.76966,0.93524 -1.26638,1.26638 -0.78537,0.52359 -1.74738,0.7428 -2.53276,1.26638 -0.49672,0.33115 -0.76967,0.93524 -1.26638,1.26639 -4.86568,3.24378 -0.18582,-1.17348 -7.59828,2.53276 -0.37757,0.18878 0.35123,1.03222 0,1.26638 -1.11069,0.74046 -2.55974,0.77061 -3.79915,1.26638 -0.84425,0.42212 -1.6885,0.84425 -2.53276,1.26638 -0.42212,0.42212 -0.73242,0.9994 -1.26638,1.26638 -1.19395,0.59698 -2.55973,0.77062 -3.79914,1.26638 -0.87639,0.35056 -1.61704,1.03745 -2.53276,1.26638 -0.81905,0.20476 -1.71371,-0.20476 -2.53276,0 -2.7295,0.68237 -3.57193,3.24715 -6.3319,3.79914 -1.24179,0.24836 -2.53276,0 -3.79914,0 -0.42213,0 -0.85686,-0.10238 -1.26638,0 -1.29503,0.32376 -2.48243,1.04693 -3.79915,1.26638 -1.24915,0.20819 -2.54549,-0.17909 -3.79914,0 -1.72298,0.24614 -3.34873,0.98025 -5.06552,1.26638 -1.69067,0.28178 -10.81926,0 -11.39742,0 -0.84426,0 -1.7,-0.13879 -2.53277,0 -1.71679,0.28613 -3.33848,1.0505 -5.06552,1.26638 -1.67547,0.20944 -3.37701,0 -5.06552,0 -1.68851,0 -3.37701,0 -5.06552,0 -1.26638,0 -2.55736,0.24836 -3.79914,0 -0.92558,-0.18511 -1.68851,-0.84425 -2.53276,-1.26638 -0.84426,-0.42212 -1.74739,-0.74279 -2.53277,-1.26638 -0.49671,-0.33114 -0.73242,-0.9994 -1.26638,-1.26638 -6.24196,-3.12098 -1.54949,1.03989 -7.59828,-3.79914 -0.93232,-0.74586 -1.68851,-1.68851 -2.53276,-2.53276 -0.84425,-0.84426 -1.68851,-1.68851 -2.53276,-2.53276 -0.42213,-0.42213 -0.93524,-0.76967 -1.26638,-1.26638 -1.55862,-2.33794 -2.24052,-5.26035 -3.79914,-7.59829 -0.33115,-0.49671 -1.0776,-0.70003 -1.26638,-1.26638 -0.53396,-1.60186 0.40952,-3.42743 0,-5.06552 -0.45786,-1.83144 -2.0749,-3.23408 -2.53276,-5.06552 -0.20477,-0.81905 0,-1.68851 0,-2.53276 0,-2.11064 0.41392,-4.26226 0,-6.3319 -0.18512,-0.92558 -1.03745,-1.61704 -1.26639,-2.53277 -0.11812,-0.47248 -0.1449,-7.30847 0,-7.59828 0.18879,-0.37756 1.0776,0.37756 1.26639,0 0.50655,-1.0131 -0.50656,-2.78604 0,-3.79914 0.26697,-0.53395 0.9994,-0.73243 1.26638,-1.26638 0.18878,-0.37756 -0.18878,-0.88882 0,-1.26638 0.57957,-1.15915 2.87368,-2.22428 3.79914,-2.53276 0.40046,-0.13349 0.88882,0.18878 1.26638,0 0.53395,-0.26698 0.9994,-0.73243 1.26638,-1.26638 0.18878,-0.37756 -0.40047,-1.13289 0,-1.26638 1.20139,-0.40047 2.59775,0.40046 3.79914,0 0.40046,-0.13349 -0.29849,-0.96789 0,-1.26638 0.66744,-0.66744 1.86532,-0.59894 2.53276,-1.26638 0.29849,-0.29849 -0.35123,-1.03223 0,-1.26638 1.11069,-0.74046 2.85524,-0.32248 3.79914,-1.26639 0.59698,-0.59697 0,-1.6885 0,-2.53276 0,-0.42212 0,-0.84425 0,-1.26638 0,-2.86105 -0.18878,0.56635 1.26638,-3.79914 0.23817,-0.71449 0,-2.96699 0,-3.79914 0,-0.42213 0.29849,-0.96789 0,-1.26638 -1.54243,-1.54243 -2.82936,-0.5932 -3.79914,-2.53276 -0.18878,-0.37756 0.23416,-0.91515 0,-1.26638 -1.2423,-1.86345 -3.82322,-3.20208 -5.06552,-5.06552 -1.04717,-1.57076 -1.48559,-3.49477 -2.53276,-5.06553 -0.33115,-0.49671 -0.93524,-0.76966 -1.26638,-1.26638 -0.52359,-0.78537 -0.7428,-1.74738 -1.26638,-2.53276 -0.33115,-0.49671 -0.93524,-0.76966 -1.26638,-1.26638 -0.52359,-0.78537 -0.96789,-1.63729 -1.26638,-2.53276 -0.13349,-0.40046 0.23415,-0.91515 0,-1.26638 -0.0211,-0.0316 -4.52172,-4.79362 -5.06553,-5.06552 -1.19395,-0.59698 -2.85523,-0.32248 -3.79914,-1.26638 -0.59697,-0.59698 0.46831,-1.8303 0,-2.53276 -0.60197,-0.90297 -6.05634,-2.32609 -6.3319,-2.53276 -0.75512,-0.56635 -0.84425,-1.68851 -1.26638,-2.53276 -1.26638,-0.42213 -2.68845,-0.52593 -3.79914,-1.26639 -0.35123,-0.23415 0.18878,-0.88881 0,-1.26638 -0.26698,-0.53395 -0.99941,-0.73242 -1.26638,-1.26638 -0.18878,-0.37756 0.29849,-0.96789 0,-1.26638 -0.66744,-0.66744 -1.74739,-0.74279 -2.53276,-1.26638 -0.49672,-0.33114 -0.76967,-0.93523 -1.26638,-1.26638 -0.78538,-0.52358 -1.74739,-0.74279 -2.53276,-1.26638 -0.49672,-0.33114 -0.70004,-1.0776 -1.26639,-1.26638 -0.80092,-0.26698 -1.6885,0 -2.53276,0 -1.26638,-0.42213 -2.55973,-0.77062 -3.79914,-1.26638 -0.84425,-0.42213 -1.68851,-0.84425 -2.53276,-1.26638 -0.42213,-0.42213 -0.73243,-0.9994 -1.26638,-1.26638 -0.37756,-0.18878 -0.84425,0 -1.26638,0 -1.26638,0 -2.55735,0.24836 -3.79914,0 -0.92558,-0.18512 -1.61704,-1.03745 -2.53276,-1.26638 -0.81905,-0.20476 -1.73183,0.26698 -2.53276,0 -0.56635,-0.18878 -0.67753,-1.16824 -1.26638,-1.26638 -2.08192,-0.34699 -4.22127,0 -6.33191,0 -6.3319,0 -12.6638,0 -18.9957,0 -1.26638,0 -2.53277,0 -3.79915,0 -0.84425,0 -1.71371,-0.20476 -2.53276,0 -0.91572,0.22893 -1.61704,1.03745 -2.53276,1.26638 -0.81904,0.20476 -1.73183,-0.26698 -2.53276,0 -0.56634,0.18878 -0.73243,0.9994 -1.26638,1.26638 -0.37756,0.18878 -0.88882,-0.18878 -1.26638,0 -1.06791,0.53395 -1.37445,2.24318 -2.53276,2.53276 -1.22857,0.30714 -2.57057,-0.30714 -3.79914,0 -0.57916,0.14479 -0.76967,0.93524 -1.26638,1.26638 -6.39751,4.26501 -0.0293,0.01 -3.79914,1.26638 -4.591,1.53033 -0.90128,0.60085 -3.79915,2.53276 -0.66493,0.44329 -3.38434,1.28836 -3.79914,2.53276 -1.49784,4.49354 2.05221,0.64075 -1.26638,5.06553 -2.47388,3.29851 -2.57301,1.38713 -3.79914,5.06552 -0.13349,0.40046 0.13349,0.86591 0,1.26638 -3.92633,7.85267 -0.16124,-0.62143 -1.26638,3.79914 -2.63519,10.54074 0.0874,-1.52866 -2.53276,6.3319 -0.13349,0.40047 0.13349,0.86592 0,1.26638 -0.59698,1.79094 -2.0749,3.23408 -2.53276,5.06552 -0.17835,0.71341 0.19554,4.77222 0,5.06553 -0.52359,0.78537 -2.00918,0.481 -2.53276,1.26638 -0.46831,0.70246 0.20476,1.71371 0,2.53276 -0.22893,0.91572 -0.84426,1.68851 -1.26638,2.53276 -0.42213,0.84425 -0.7428,1.74738 -1.26638,2.53276 -0.33115,0.49672 -0.9082,0.7888 -1.26638,1.26638 -0.9132,1.2176 -1.22766,3.01608 -2.53277,3.79914 -1.08591,0.65155 -2.62333,-0.47032 -3.79914,0 -1.10856,0.44343 -1.50895,1.91848 -2.53276,2.53276 -1.14465,0.68679 -2.73123,0.46545 -3.79914,1.26638 -0.75512,0.56635 -0.481,2.00918 -1.26638,2.53276 -0.70246,0.46831 -1.71371,-0.20476 -2.53276,0 -6.11528,1.52883 0.0628,0.60181 -3.79914,2.53277 -1.19396,0.59697 -2.55974,0.77061 -3.79914,1.26638 -2.95275,1.18109 -2.73186,1.93275 -6.33191,2.53276 -2.4983,0.41638 -5.14114,-0.61429 -7.59828,0 -0.57915,0.14479 -0.68723,1.12159 -1.26638,1.26638 -2.11063,0.52766 -4.22127,-0.35177 -6.3319,0 -1.7168,0.28613 -3.35885,0.92504 -5.06553,1.26638 -0.41392,0.0828 -0.84425,0 -1.26638,0 -2.11063,0 -4.22126,0 -6.3319,0 -4.22127,0 -8.44253,0 -12.6638,0 -3.79914,0 -7.59829,0 -11.39743,0 -2.11063,0 -4.22127,0 -6.3319,0 -0.84425,0 -1.7049,0.16557 -2.53276,0 -1.30896,-0.26179 -2.53276,-0.84426 -3.79914,-1.26638 -1.26638,-0.42213 -2.55974,-0.77062 -3.79914,-1.26638 -1.75279,-0.70112 -3.27459,-1.93579 -5.06553,-2.53276 -0.40046,-0.13349 -0.86591,0.13348 -1.26638,0 -0.89546,-0.29849 -1.6885,-0.84426 -2.53276,-1.26638 -2.53276,-1.26638 -5.06552,-2.53277 -7.59828,-3.79915 -0.84425,-0.42212 -1.68851,-0.84425 -2.53276,-1.26638 -0.84426,-0.42212 -1.86532,-0.59894 -2.53276,-1.26638 -0.66744,-0.66744 -0.59894,-1.86532 -1.26638,-2.53276 -1.07622,-1.07621 -2.61066,-1.58197 -3.79915,-2.53276 -7.75472,-7.75472 2.13582,1.60186 -5.06552,-3.79914 -0.95516,-0.71637 -1.57759,-1.81639 -2.53276,-2.53276 -0.75512,-0.56634 -1.96642,-0.51126 -2.53276,-1.26638 -0.80093,-1.06791 -0.6694,-2.60519 -1.26638,-3.79914 -2.5132,-5.02641 -0.40026,5.59699 -2.53276,-5.06553 -0.16557,-0.82785 0.16557,-1.7049 0,-2.53276 -0.26179,-1.30896 -1.00459,-2.49018 -1.26638,-3.79914 -0.16557,-0.82786 0.20476,-1.71371 0,-2.53276 -0.22893,-0.91572 -1.03745,-1.61704 -1.26638,-2.53276 -0.40953,-1.63809 0.40952,-3.42743 0,-5.06552 -0.22893,-0.91572 -0.96789,-1.6373 -1.26638,-2.53276 -0.27351,-0.82051 0,-5.29512 0,-6.33191 0,-1.09742 -0.24453,-4.33194 0,-5.06552 0.59698,-1.79093 1.93578,-3.27459 2.53276,-5.06552 0.13349,-0.40046 -0.18878,-0.88882 0,-1.26638 0.26698,-0.53395 0.93524,-0.76967 1.26638,-1.26638 0.52358,-0.78538 0.7428,-1.74739 1.26638,-2.53276 0.33114,-0.49672 0.9994,-0.73243 1.26638,-1.26638 0.18878,-0.37756 -0.18878,-0.88882 0,-1.26638 0.26698,-0.53396 0.93524,-0.76967 1.26638,-1.26638 0.52358,-0.78538 0.7428,-1.74739 1.26638,-2.53276 0.33114,-0.49672 0.84425,-0.84426 1.26638,-1.26638 0.84426,-0.84426 1.53933,-1.87048 2.53276,-2.53277 0.35123,-0.23415 0.84426,0 1.26638,0 1.26638,0 2.57058,0.30715 3.79914,0 0.57916,-0.14478 0.70004,-1.0776 1.26639,-1.26638 0.80092,-0.26697 1.7049,0.16558 2.53276,0 1.30896,-0.26179 2.50411,-0.94262 3.79914,-1.26638 0.40952,-0.10238 0.85686,0.10238 1.26638,0 1.29502,-0.32375 2.49018,-1.00459 3.79914,-1.26638 0.82786,-0.16557 1.71371,0.20476 2.53276,0 0.91572,-0.22893 1.61704,-1.03745 2.53276,-1.26638 1.22857,-0.30714 2.59775,0.40047 3.79914,0 1.79094,-0.59698 3.2034,-2.2224 5.06553,-2.53276 1.33962,-0.22327 9.99149,0 11.39742,0 1.68851,0 3.37701,0 5.06552,0 0.84426,0 1.71372,-0.20476 2.53276,0 0.91572,0.22893 1.61704,1.03745 2.53276,1.26638 0.81905,0.20476 1.68851,0 2.53277,0 1.26638,0 2.53276,0 3.79914,0 0.84425,0 1.6885,0 2.53276,0 0.84425,0 1.73183,0.26698 2.53276,0 0.56634,-0.18878 0.73243,-0.9994 1.26638,-1.26638 0.37756,-0.18878 0.84425,0 1.26638,0 0.84425,0 1.73183,0.26698 2.53276,0 0.56634,-0.18878 0.68723,-1.12159 1.26638,-1.26638 1.22857,-0.30714 2.59775,0.40047 3.79914,0 0.40047,-0.13349 -0.37756,-1.0776 0,-1.26638 0.75513,-0.37756 1.73183,0.26698 2.53276,0 0.56635,-0.18878 0.73243,-0.9994 1.26638,-1.26638 3.11904,-1.55952 -1.1432,3.67597 3.79915,-1.26638 0.29848,-0.29849 -0.35123,-1.03223 0,-1.26638 1.11069,-0.74046 2.68845,-0.52592 3.79914,-1.26638 0.35123,-0.23416 -0.23416,-0.91515 0,-1.26638 0.66228,-0.99343 1.81639,-1.5776 2.53276,-2.53276 0.56634,-0.75513 0.59894,-1.86532 1.26638,-2.53276 0.66744,-0.66745 1.86532,-0.59894 2.53276,-1.26638 0.29849,-0.29849 -0.18878,-0.88882 0,-1.26639 0.68066,-1.36131 1.8521,-2.43782 2.53276,-3.79914 0.18878,-0.37756 -0.29849,-0.96789 0,-1.26638 1.07622,-1.07621 2.88594,-1.31516 3.79914,-2.53276 0.50655,-0.6754 -0.26697,-1.73183 0,-2.53276 0.18878,-0.56634 0.93524,-0.76966 1.26638,-1.26638 0.52359,-0.78538 0.7428,-1.74739 1.26638,-2.53276 0.33115,-0.49672 0.99941,-0.73243 1.26638,-1.26638 0.3736,-0.74719 -0.29035,-2.92809 0,-3.79914 0.29849,-0.89547 0.9679,-1.6373 1.26638,-2.53276 0.13349,-0.40047 -0.18878,-0.88882 0,-1.26638 0.26698,-0.53396 1.1216,-0.68723 1.26639,-1.26639 0.30714,-1.22856 0,-2.53276 0,-3.79914 0,-1.26638 0,-2.53276 0,-3.79914 0,-2.95489 0,-5.90977 0,-8.86466 0,-0.84426 0.20476,-1.71372 0,-2.53276 -0.22894,-0.91572 -1.03746,-1.61704 -1.26639,-2.53276 -0.20476,-0.81905 0,-1.68851 0,-2.53276 0,-0.42213 0.18879,-0.88882 0,-1.26639 -0.26697,-0.53395 -0.9994,-0.73242 -1.26638,-1.26638 -0.39797,-0.79594 0.39798,-4.26957 0,-5.06552 -1.3588,-2.71761 -1.38294,-0.0583 -3.79914,-1.26638 -0.37756,-0.18878 0.18878,-0.88882 0,-1.26638 -0.26697,-0.53395 -0.9994,-0.73243 -1.26638,-1.26638 -0.18878,-0.37756 0.40047,-1.13289 0,-1.26638 -1.20139,-0.40046 -2.59775,0.40046 -3.79914,0 -0.40046,-0.13349 0.18878,-0.88882 0,-1.26638 -0.26698,-0.53395 -0.70004,-1.0776 -1.26638,-1.26638 -0.80093,-0.26698 -1.73183,0.26698 -2.53276,0 -1.13269,-0.37756 -1.40008,-2.1552 -2.53276,-2.53276 -0.80093,-0.26698 -1.73183,0.26697 -2.53276,0 -0.925,-0.30833 -4.14053,-4.75719 -5.06553,-5.06552 -7.42057,-2.47353 2.25423,3.52061 -3.79914,-2.53277 -0.66744,-0.66744 -1.6885,-0.84425 -2.53276,-1.26638 -0.84425,-0.42212 -1.63729,-0.96789 -2.53276,-1.26638 -0.40046,-0.13348 -0.88882,0.18878 -1.26638,0 -0.53395,-0.26697 -0.76966,-0.93523 -1.26638,-1.26638 -0.78538,-0.52358 -1.86532,-0.59894 -2.53276,-1.26638 -0.66744,-0.66744 -0.59894,-1.86532 -1.26638,-2.53276 -0.0812,-0.0812 -4.82963,-2.3755 -5.06552,-2.53276 -0.49672,-0.33114 -0.84426,-0.84425 -1.26638,-1.26638 -0.84426,-0.84425 -1.81639,-1.5776 -2.53276,-2.53276 -0.56635,-0.75512 -0.7428,-1.74739 -1.26639,-2.53276 -1.12331,-1.68498 -3.87823,-2.61186 -5.06552,-3.79914 -0.87275,-0.87275 -2.87055,-6.20541 -3.79914,-7.59829 -0.33114,-0.49671 -0.93524,-0.76966 -1.26638,-1.26638 -0.52358,-0.78537 -0.84425,-1.6885 -1.26638,-2.53276 -0.42213,-0.84425 -0.96789,-1.63729 -1.26638,-2.53276 -0.13349,-0.40046 0.18878,-0.88882 0,-1.26638 -0.26698,-0.53395 -1.0776,-0.70004 -1.26638,-1.26638 -1.26638,-3.79914 0.63319,-1.26638 0,-3.79914 -0.32376,-1.29503 -0.77062,-2.55974 -1.26638,-3.79914 -0.35056,-0.8764 -1.03745,-1.61704 -1.26638,-2.53276 -0.20476,-0.81905 0.20476,-1.71372 0,-2.53276 -0.22893,-0.91573 -1.03745,-1.61704 -1.26638,-2.53277 -0.20476,-0.81904 0,-1.6885 0,-2.53276 0,-0.84425 0,-1.6885 0,-2.53276 0,-3.79914 0,-7.59828 0,-11.39742 0,-2.53276 0,-5.06552 0,-7.59829 0,-0.42212 0,-0.84425 0,-1.26638 0,-0.42212 -0.18878,-0.88882 0,-1.26638 0.26697,-0.53395 1.0776,-0.70003 1.26638,-1.26638 0.002,-0.006 -0.001,-3.79793 0,-3.79914 0.29849,-0.29849 0.96789,0.29849 1.26638,0 0.29849,-0.29849 -0.18878,-0.88882 0,-1.26638 0.26697,-0.53395 0.9994,-0.73243 1.26638,-1.26638 0.18878,-0.37756 -0.18878,-0.88882 0,-1.26638 0.26698,-0.53395 0.84425,-0.84425 1.26638,-1.26638 0.42213,-0.42213 0.73243,-0.9994 1.26638,-1.26638 0.37756,-0.18878 0.88882,0.18878 1.26638,0 0.53395,-0.26698 0.73243,-0.99941 1.26638,-1.26638 0.37756,-0.18878 0.84425,0 1.26638,0 0.84426,0 1.73183,0.26697 2.53276,0 0.56635,-0.18878 0.70004,-1.0776 1.26638,-1.26638 0.61525,-0.20508 7.57176,0 8.86467,0 5.48765,0 10.97529,0 16.46294,0 2.53276,0 5.06553,0 7.59829,0 0.42212,0 0.96789,0.29849 1.26638,0 0.59697,-0.59698 -0.37756,-1.77764 0,-2.53276 0.26697,-0.53396 0.9994,-0.73243 1.26638,-1.26638 0.1927,-0.38541 0,-3.22882 0,-3.79915 0,-2.53276 0,-5.06552 0,-7.59828 0,-1.27531 0.23344,-6.89795 0,-7.59828 -0.18878,-0.56634 -1.0776,-0.70004 -1.26638,-1.26638 -0.37992,-1.13974 0.37991,-2.6594 0,-3.79914 -0.88087,-2.6426 -2.91828,-3.68931 -3.79914,-6.33191 -0.26698,-0.80093 0.6754,-2.0262 0,-2.53276 -1.51025,-1.13268 -3.55528,-1.40007 -5.06553,-2.53276 -0.3377,-0.25327 0.29849,-0.96789 0,-1.26638 -0.0812,-0.0812 -4.82963,-2.3755 -5.06552,-2.53276 -0.49671,-0.33114 -0.76966,-0.93524 -1.26638,-1.26638 -0.78538,-0.52358 -1.72337,-0.78075 -2.53276,-1.26638 -1.3051,-0.78306 -2.43782,-1.8521 -3.79914,-2.53276 -0.37756,-0.18878 -0.96789,0.29849 -1.26638,0 -0.29849,-0.29849 0.29849,-0.96789 0,-1.26638 -1.10653,-1.10653 -5.3428,-2.03821 -6.3319,-2.53276 -0.53396,-0.26698 -0.84426,-0.84426 -1.26639,-1.26638 -0.84425,-0.42213 -1.65636,-0.91583 -2.53276,-1.26638 -1.2394,-0.49577 -2.68845,-0.52593 -3.79914,-1.26638 -0.35123,-0.23416 0.37756,-1.0776 0,-1.26639 -1.51024,-0.75512 -3.42743,0.40953 -5.06552,0 -0.91572,-0.22893 -1.63729,-0.96789 -2.53276,-1.26638 -0.82051,-0.2735 -5.29512,0 -6.3319,0 -5.06553,0 -10.13105,0 -15.19657,0 -2.53276,0 -5.06552,0 -7.59828,0 -1.68851,0 -3.37702,0 -5.06552,0 -0.42213,0 -0.86592,-0.13348 -1.26639,0 -9.17292,3.05764 1.99659,-0.3651 -3.79914,2.53277 -0.62426,0.31213 -6.80122,-0.26569 -7.59828,0 -0.40046,0.13348 0.41638,1.19698 0,1.26638 -2.4983,0.41638 -5.06552,0 -7.59828,0 -2.11064,0 -4.22127,0 -6.33191,0 -2.95488,0 -5.90977,0 -8.86466,0 -1.26638,0 -2.545488,0.17909 -3.799141,0 -1.722981,-0.24614 -3.348729,-0.98025 -5.065522,-1.26638 -0.832766,-0.1388 -1.713714,0.20476 -2.532761,0 -0.915721,-0.22894 -1.617039,-1.03745 -2.532761,-1.26639 -0.819046,-0.20476 -1.713714,0.20477 -2.532761,0 -0.915721,-0.22893 -1.656368,-0.91582 -2.532761,-1.26638 -1.239407,-0.49576 -2.731235,-0.46545 -3.799141,-1.26638 -0.755124,-0.56634 -0.481005,-2.00917 -1.266381,-2.53276 -0.702461,-0.46831 -1.713714,0.20476 -2.532761,0 -0.915722,-0.22893 -1.637295,-0.96789 -2.532761,-1.26638 -0.400465,-0.13349 -1.032227,0.35123 -1.26638,0 -0.74046,-1.11069 -0.465452,-2.73123 -1.266381,-3.79914 -0.566342,-0.75512 -2.009177,-0.481 -2.532761,-1.26638 -0.936615,-1.40492 1.404923,-4.12891 0,-5.06552 -1.053692,-0.70246 -2.666456,0.56634 -3.799141,0 -2.212389,-1.1062 -0.757947,-3.54022 -1.266381,-5.06552 -0.188781,-0.56635 -1.0776,-0.70004 -1.26638,-1.26638 -0.533953,-1.60186 0.409523,-3.42743 0,-5.06553 -0.228931,-0.91572 -0.967892,-1.63729 -1.266381,-2.53276 -0.290352,-0.87106 0.373595,-3.05195 0,-3.79914 -0.266976,-0.53395 -0.999404,-0.73243 -1.26638,-1.26638 -0.07067,-0.14135 -0.07067,-6.19055 0,-6.3319 0.266976,-0.53396 0.999404,-0.73243 1.26638,-1.26638 0.675165,-1.35033 -0.675165,-1.18243 0,-2.53276 0.266976,-0.53396 0.999404,-0.73243 1.266381,-1.26638 0.377561,-0.75513 -0.596978,-1.93579 0,-2.53277 0.298488,-0.29848 0.967891,0.29849 1.26638,0 0.298489,-0.29848 -0.298489,-0.96789 0,-1.26638 0.298489,-0.29848 0.967892,0.29849 1.266381,0 0.298488,-0.29848 -0.298489,-0.96789 0,-1.26638 0.298488,-0.29849 0.888818,0.18878 1.26638,0 0.533953,-0.26697 0.844254,-0.84425 1.266381,-1.26638 0.844253,0 1.731831,0.26698 2.532761,0 3.952779,-1.31759 -0.422127,-0.84425 1.26638,-2.53276 0.298489,-0.29849 0.888819,0.18878 1.266381,0 0.533953,-0.26697 0.732427,-0.9994 1.26638,-1.26638 0.377562,-0.18878 0.967892,0.29849 1.266381,0 0.298488,-0.29849 -0.298489,-0.96789 0,-1.26638 0.63319,-0.63319 3.165951,0.63319 3.799141,0 0.298489,-0.29849 -0.298489,-0.96789 0,-1.26638 0.258894,-0.25889 3.297032,0.25106 3.799142,0 0.533953,-0.26698 0.732427,-0.9994 1.26638,-1.26638 0.377562,-0.18878 0.888819,0.18878 1.266381,0 0.533953,-0.26698 0.844253,-0.84425 1.26638,-1.26638 0.422127,-0.42213 0.999404,-0.73243 1.266381,-1.26638 0.188781,-0.37756 -0.298489,-0.96789 0,-1.26638 0.298489,-0.29849 0.844253,0 1.26638,0 0.844254,0 1.777638,0.37756 2.532761,0 0.377562,-0.18878 -0.377561,-1.0776 0,-1.26638 1.013105,-0.50655 2.786037,0.50655 3.799142,0 5.795726,-2.89787 -5.37378,0.52488 3.799141,-2.53276 3.769801,-1.2566 -2.598367,2.99862 3.799141,-1.26638 2.89786,-1.93191 -0.79186,-1.00243 3.79914,-2.53276 0.40047,-0.13349 0.88882,0.18878 1.26638,0 0.53396,-0.26698 0.70004,-1.0776 1.26638,-1.26639 0.80093,-0.26697 1.73184,0.26698 2.53276,0 0.56635,-0.18878 0.70004,-1.07759 1.26638,-1.26638 0.80093,-0.26697 1.77764,0.37757 2.53277,0 0.37756,-0.18878 -0.37757,-1.0776 0,-1.26638 0.75512,-0.37756 1.73183,0.26698 2.53276,0 0.56634,-0.18878 0.70003,-1.0776 1.26638,-1.26638 0.80093,-0.26697 1.77764,0.37757 2.53276,0 0.37756,-0.18878 -0.29849,-0.96789 0,-1.26638 0.29849,-0.29849 0.88882,0.18878 1.26638,0 0.53395,-0.26697 0.70004,-1.0776 1.26638,-1.26638 1.20139,-0.40046 2.53276,0 3.79914,0 2.11064,0 4.22127,0 6.3319,0 7.17616,0 14.35232,0 21.52847,0 2.11064,0 4.22127,0 6.3319,0 0.42213,0 0.84426,0 1.26639,0 0.42212,0 0.88881,0.18878 1.26638,0 0.53395,-0.26697 0.73242,-0.9994 1.26638,-1.26638 0.75512,-0.37756 1.77763,0.37756 2.53276,0 0.53395,-0.26697 0.73243,-0.9994 1.26638,-1.26638 0.36244,-0.18122 5.65538,0 6.3319,0 0.42213,0 0.96789,0.29849 1.26638,0 0.29849,-0.29849 -0.29849,-0.96789 0,-1.26638 0.29849,-0.29849 0.84425,0 1.26638,0 2.11064,0 4.24999,-0.34699 6.3319,0 0.58886,0.0981 0.73243,0.9994 1.26638,1.26638 0.37757,0.18878 0.84426,0 1.26639,0 0.84425,0 1.6885,0 2.53276,0 2.11063,0 4.22126,0 6.3319,0 0.42213,0 0.96789,0.29849 1.26638,0 0.29849,-0.29849 -0.29849,-0.96789 0,-1.26638 0.59698,-0.59698 1.93578,0.59698 2.53276,0 0.29849,-0.29849 -0.29849,-0.96789 0,-1.26638 0.29849,-0.29849 0.96789,0.29849 1.26638,0 0.29849,-0.29849 -0.37756,-1.0776 0,-1.26638 7.17616,0 0.42213,0.84425 2.53276,-1.26638 0.29849,-0.29849 0.96789,0.29849 1.26638,0 0.59698,-0.59698 -0.37756,-1.77764 0,-2.53276 0.26698,-0.53395 0.99941,-0.73243 1.26638,-1.26638 0.37756,-0.75513 -0.59697,-1.93579 0,-2.53276 0.29849,-0.29849 0.96789,0.29849 1.26638,0 0.29849,-0.29849 0,-0.84426 0,-1.26638 0,-0.88082 -0.22898,-5.87394 0,-6.33191 0.26698,-0.53395 0.99941,-0.73242 1.26638,-1.26638 0.19271,-0.3854 0,-3.22881 0,-3.79914 0,-0.30713 -0.0407,-3.75841 0,-3.79914 0.29849,-0.29849 0.9679,0.29849 1.26638,0 0.0407,-0.0407 0,-3.49201 0,-3.79914 0,-0.42213 0.29849,-0.96789 0,-1.26638 -0.29848,-0.29849 -0.84425,0 -1.26638,0 -0.84425,-1.68851 -1.6885,-3.37702 -2.53276,-5.06552 z"
       style="fill:none;fill-rule:evenodd;stroke:#000000;stroke-width:1px;stroke-linecap:butt;stroke-linejoin:miter;stroke-opacity:1" />
  </g>
</svg>
