<?xml version="1.0" encoding="UTF-8" standalone="no"?>
<!-- Created with Inkscape (http://www.inkscape.org/) -->

<svg
   xmlns:dc="http://purl.org/dc/elements/1.1/"
   xmlns:cc="http://creativecommons.org/ns#"
   xmlns:rdf="http://www.w3.org/1999/02/22-rdf-syntax-ns#"
   xmlns:svg="http://www.w3.org/2000/svg"
   xmlns="http://www.w3.org/2000/svg"
   xmlns:sodipodi="http://sodipodi.sourceforge.net/DTD/sodipodi-0.dtd"
   xmlns:inkscape="http://www.inkscape.org/namespaces/inkscape"
   width="210mm"
   height="297mm"
   viewBox="0 0 744.09448819 1052.3622047"
   id="svg2"
   version="1.1"
   inkscape:version="0.91 r13725"
   sodipodi:docname="flor.svg">
  <defs
     id="defs4" />
  <sodipodi:namedview
     id="base"
     pagecolor="#ffffff"
     bordercolor="#666666"
     borderopacity="1.0"
     inkscape:pageopacity="0.0"
     inkscape:pageshadow="2"
     inkscape:zoom="0.98994949"
     inkscape:cx="319.74518"
     inkscape:cy="702.00325"
     inkscape:document-units="px"
     inkscape:current-layer="layer2"
     showgrid="false"
     inkscape:window-width="1215"
     inkscape:window-height="1000"
     inkscape:window-x="65"
     inkscape:window-y="24"
     inkscape:window-maximized="1" />
  <metadata
     id="metadata7">
    <rdf:RDF>
      <cc:Work
         rdf:about="">
        <dc:format>image/svg+xml</dc:format>
        <dc:type
           rdf:resource="http://purl.org/dc/dcmitype/StillImage" />
        <dc:title></dc:title>
      </cc:Work>
    </rdf:RDF>
  </metadata>
  <g
     inkscape:groupmode="layer"
     id="layer2"
     inkscape:label="Capa 2">
    <path
       style="fill:none;fill-rule:evenodd;stroke:#000000;stroke-width:1px;stroke-linecap:butt;stroke-linejoin:miter;stroke-opacity:1"
       d="m 307.14286,398.79078 c 0,0 -55,-194.28572 8.57143,-195 63.57142,-0.71429 13.57142,197.14285 13.57142,197.14285 0,0 81.26118,-194.64523 118.57143,-160 30.00001,27.85715 -105,161.42857 -105,161.42857 0,0 165.71429,-117.85714 176.42857,-62.14285 10.71429,55.71428 -167.14285,80.71428 -167.14285,80.71428 0,0 180.4054,-41.53055 162.85714,12.14286 -14.85487,45.43537 -168.57143,2.14286 -168.57143,2.14286 0,0 172.99243,21.34797 130.71428,77.14285 -42.73813,56.40194 -130.71428,-65 -130.71428,-65 0,0 69.28572,81.42858 18.57143,103.57143 -50.71429,22.14286 -46.42857,-95 -46.42857,-95 0,0 -26.42857,168.57143 -74.28572,132.85715 -47.85714,-35.71429 57.85715,-142.14286 57.85715,-142.14286 0,0 -149.28572,68.57143 -153.57143,2.14286 -3.1851,-49.36907 144.28571,-26.42858 144.28571,-26.42858 0,0 -143.57143,-25.71428 -114.28571,-83.57142 29.28571,-57.85715 128.57143,60 128.57143,60 z"
       id="path3348"
       inkscape:connector-curvature="0"
       sodipodi:nodetypes="cscscscscscscscscsc" />
  </g>
</svg>
