<?xml version="1.0" encoding="UTF-8" standalone="no"?>
<!-- Created with Inkscape (http://www.inkscape.org/) -->

<svg
   xmlns:dc="http://purl.org/dc/elements/1.1/"
   xmlns:cc="http://creativecommons.org/ns#"
   xmlns:rdf="http://www.w3.org/1999/02/22-rdf-syntax-ns#"
   xmlns:svg="http://www.w3.org/2000/svg"
   xmlns="http://www.w3.org/2000/svg"
   xmlns:sodipodi="http://sodipodi.sourceforge.net/DTD/sodipodi-0.dtd"
   xmlns:inkscape="http://www.inkscape.org/namespaces/inkscape"
   width="210mm"
   height="297mm"
   viewBox="0 0 744.09448819 1052.3622047"
   id="svg3369"
   version="1.1"
   inkscape:version="0.91 r13725"
   sodipodi:docname="nube.svg">
  <defs
     id="defs3371" />
  <sodipodi:namedview
     id="base"
     pagecolor="#ffffff"
     bordercolor="#666666"
     borderopacity="1.0"
     inkscape:pageopacity="0.0"
     inkscape:pageshadow="2"
     inkscape:zoom="1.1167367"
     inkscape:cx="352.09655"
     inkscape:cy="736.08566"
     inkscape:document-units="px"
     inkscape:current-layer="layer1"
     showgrid="false"
     inkscape:window-width="1215"
     inkscape:window-height="1000"
     inkscape:window-x="65"
     inkscape:window-y="24"
     inkscape:window-maximized="1" />
  <metadata
     id="metadata3374">
    <rdf:RDF>
      <cc:Work
         rdf:about="">
        <dc:format>image/svg+xml</dc:format>
        <dc:type
           rdf:resource="http://purl.org/dc/dcmitype/StillImage" />
        <dc:title></dc:title>
      </cc:Work>
    </rdf:RDF>
  </metadata>
  <g
     inkscape:label="Capa 1"
     inkscape:groupmode="layer"
     id="layer1">
    <path
       style="fill:none;fill-rule:evenodd;stroke:#000000;stroke-width:1px;stroke-linecap:butt;stroke-linejoin:miter;stroke-opacity:1"
       d="m 218.49376,181.96901 c 0,0 14.32746,-47.45971 53.72798,-47.45971 39.40051,0 59.10077,43.87785 59.10077,43.87785 0,0 3.58187,-43.87785 45.66878,-44.77331 42.08691,-0.89547 57.30984,57.30983 57.30984,57.30983 0,0 25.96852,-41.19144 51.04158,-32.23678 25.07305,8.95466 7.16373,59.99624 7.16373,59.99624 0,0 69.84636,-22.38666 61.78717,42.08691 -8.0592,64.47357 -98.50129,17.01386 -98.50129,17.01386 0,0 13.43199,67.15997 -34.92318,72.53277 -48.35518,5.37279 -34.92319,-65.36904 -34.92319,-65.36904 0,0 -5.37279,88.65116 -67.15997,84.17383 -61.78717,-4.47733 -75.21916,-67.15997 -75.21916,-67.15997 0,0 -39.40052,50.14611 -80.59196,-3.58187 -41.19145,-53.72797 71.6373,-55.5189 71.6373,-55.5189 0,0 -15.22293,-14.32746 -18.80479,-30.44586 -3.58187,-16.11839 2.68639,-30.44585 2.68639,-30.44585 z"
       id="path3377"
       inkscape:connector-curvature="0" />
  </g>
</svg>
