<?xml version="1.0" encoding="UTF-8" standalone="no"?>
<!-- Created with Inkscape (http://www.inkscape.org/) -->

<svg
   xmlns:dc="http://purl.org/dc/elements/1.1/"
   xmlns:cc="http://creativecommons.org/ns#"
   xmlns:rdf="http://www.w3.org/1999/02/22-rdf-syntax-ns#"
   xmlns:svg="http://www.w3.org/2000/svg"
   xmlns="http://www.w3.org/2000/svg"
   xmlns:sodipodi="http://sodipodi.sourceforge.net/DTD/sodipodi-0.dtd"
   xmlns:inkscape="http://www.inkscape.org/namespaces/inkscape"
   width="210mm"
   height="297mm"
   viewBox="0 0 744.09448819 1052.3622047"
   id="svg4746"
   version="1.1"
   inkscape:version="0.91 r13725"
   sodipodi:docname="trigre-logo-Mauricio.svg">
  <defs
     id="defs4748" />
  <sodipodi:namedview
     id="base"
     pagecolor="#ffffff"
     bordercolor="#666666"
     borderopacity="1.0"
     inkscape:pageopacity="0.0"
     inkscape:pageshadow="2"
     inkscape:zoom="0.87327348"
     inkscape:cx="372.04724"
     inkscape:cy="526.1811"
     inkscape:document-units="px"
     inkscape:current-layer="layer1"
     showgrid="false"
     inkscape:window-width="1855"
     inkscape:window-height="1056"
     inkscape:window-x="69"
     inkscape:window-y="1048"
     inkscape:window-maximized="1" />
  <metadata
     id="metadata4751">
    <rdf:RDF>
      <cc:Work
         rdf:about="">
        <dc:format>image/svg+xml</dc:format>
        <dc:type
           rdf:resource="http://purl.org/dc/dcmitype/StillImage" />
        <dc:title />
      </cc:Work>
    </rdf:RDF>
  </metadata>
  <g
     inkscape:label="Capa 1"
     inkscape:groupmode="layer"
     id="layer1">
    <g
       id="g6075"
       transform="translate(-23.834035,102.69981)">
      <g
         transform="matrix(2.3650584,0,0,2.3650584,-383.42021,-1000.5053)"
         id="g6064">
        <path
           inkscape:connector-curvature="0"
           id="path6012"
           d="m 317.3894,684.48197 c -20.67439,-3.0979 -37.77276,-11.90795 -51.99456,-26.79049 -18.06421,-18.90349 -27.08857,-45.44098 -23.92321,-70.34985 2.51574,-19.79687 10.41945,-36.80312 23.49596,-50.55579 9.07331,-9.54246 18.41429,-16.11666 29.82348,-20.98982 11.61208,-4.95982 25.45277,-7.59033 37.11545,-7.05401 22.43952,1.03189 42.08612,9.30256 57.85002,24.35326 15.46897,14.76911 24.38895,32.5107 27.14819,53.997 1.20666,9.39628 0.68157,18.99455 -1.60064,29.25855 -4.8621,21.86686 -18.35045,41.35554 -37.52231,54.2142 -17.45702,11.70848 -40.18214,16.94528 -60.39238,13.91695 z m 1.31988,-27.79528 c 5.09268,-1.29186 8.33316,-2.82589 10.71537,-5.0726 2.42424,-2.28635 2.01714,-2.83595 -1.95466,-2.63888 -6.2308,0.30917 -9.31821,-1.04853 -9.31821,-4.09771 0,-2.10016 1.53169,-3.93824 5.3695,-6.44359 5.19685,-3.39253 7.72568,-4.02897 16.96297,-4.2691 6.21293,-0.16151 8.52335,-0.40733 11.19893,-1.19154 5.84998,-1.71461 9.60024,-3.90836 13.49796,-7.89575 10.81906,-11.06795 12.90293,-22.62057 6.41408,-35.55864 -1.23565,-2.46376 -2.18658,-4.47957 -2.11318,-4.47957 0.29871,0 3.94342,5.9415 5.22557,8.51857 4.17529,8.39216 4.65479,15.507 1.49534,22.18766 -1.33612,2.82522 -4.50079,7.00445 -7.49179,9.89356 -1.6917,1.63406 -2.17319,3.14782 -1.39195,4.37611 0.18932,0.29765 1.49764,0.97274 2.90738,1.50019 4.73296,1.77082 7.77019,5.25562 8.45457,9.70044 0.46578,3.02503 0.66957,3.5688 1.44963,3.86814 1.33976,0.51411 3.30276,-1.08927 7.107,-5.80501 14.3089,-17.73732 20.67687,-36.90248 18.91525,-56.92771 -0.5782,-6.57274 -1.88719,-13.60492 -2.68003,-14.39776 -0.31058,-0.31058 -1.88822,-0.20366 -4.78886,0.32455 -5.7486,1.04683 -15.30308,1.07431 -19.14211,0.0551 -1.56441,-0.41534 -3.83237,-1.21958 -5.03992,-1.7872 -2.33456,-1.09737 -8.88105,-6.92268 -8.07985,-7.18974 0.26139,-0.0871 1.16294,0.57426 2.00344,1.46976 3.86318,4.11596 10.94708,6.88969 17.64441,6.90874 4.81092,0.0137 7.99044,-0.6584 12.28933,-2.59767 3.19056,-1.43931 4.05566,-2.40834 3.03799,-3.40299 -0.92342,-0.90254 -20.56877,-7.32653 -27.89447,-9.12144 -14.39325,-3.52656 -26.71531,-5.00651 -41.53729,-4.98886 -10.84015,0.0129 -12.73004,0.31796 -21.1663,3.41653 -4.25834,1.56405 -14.6264,6.1877 -15.5497,6.93441 -0.3133,0.25338 -3.03671,0.64448 -6.05203,0.86913 -12.11953,0.90292 -32.10221,5.52875 -34.83876,8.06491 -1.63011,1.51072 -1.5128,3.64546 0.3227,5.87224 l 1.45514,1.76534 -1.05467,4.09084 c -0.81923,3.17762 -0.98496,4.70693 -0.74243,6.85063 0.31748,2.8062 1.86717,6.88971 3.46599,9.13304 0.49912,0.70033 1.3085,3.4425 1.86086,6.30452 1.31239,6.80016 3.63153,11.60709 7.66037,15.87788 1.65682,1.75632 3.43066,3.32605 3.94186,3.48829 1.81307,0.57545 1.9382,-0.48972 0.47239,-4.02108 -2.13028,-5.13213 -2.96228,-8.90336 -2.99548,-13.57761 -0.0274,-3.85192 0.0988,-4.48009 1.45162,-7.22806 2.71356,-5.512 8.44232,-9.23233 16.43149,-10.67082 5.86947,-1.05682 16.52959,-0.72838 22.31378,0.68748 7.33857,1.79634 12.63789,4.44093 14.69892,7.33538 1.52175,2.1371 2.46399,7.07554 2.21651,11.61711 -0.36927,6.77647 -3.16195,11.49848 -11.67748,19.74483 -7.8909,7.64147 -12.49091,9.80828 -20.8937,9.84187 -5.07341,0.0203 -8.00453,-0.79591 -11.50459,-3.20353 -1.25791,-0.86529 -2.60291,-1.57325 -2.9889,-1.57325 -1.42006,0 -0.72441,2.54532 1.79031,6.55055 2.16215,3.44369 2.5351,4.38541 2.8169,7.11278 0.17863,1.72898 0.63051,3.49198 1.00415,3.91781 0.37364,0.42582 1.70483,1.03704 2.95819,1.35827 1.71998,0.44082 2.49616,0.93568 3.16499,2.01786 0.71359,1.15462 2.02927,1.91892 6.75654,3.92503 9.34745,3.96677 13.78905,4.4976 21.42493,2.5606 z m -13.6154,-95.53083 c -1.16102,-0.2566 -0.53708,-0.63895 5.29532,-3.24496 3.63629,-1.62475 8.14884,-3.44648 10.0279,-4.0483 3.56004,-1.14017 10.88696,-2.06344 13.06741,-1.64662 1.30025,0.24856 0.12112,0.84102 -12.79501,6.42887 -5.99946,2.59552 -11.32993,3.45377 -15.59562,2.51101 z"
           style="fill:#000000;stroke:none" />
        <path
           sodipodi:nodetypes="ssssscscssssscssssssssss"
           style="fill:#000000;fill-opacity:1"
           d="m 389.45821,469.00271 c -1.15286,-0.24816 -3.48648,-0.54957 -5.18583,-0.66982 -18.5961,-1.3158 -35.89443,10.23174 -41.78584,27.89427 -2.63378,7.89613 -2.89793,15.43051 -0.82406,23.50466 0.68028,2.64848 0.94892,4.30426 0.71394,4.40043 -2.47413,1.01268 -11.12002,4.44242 -11.46943,4.54982 -0.25344,0.0779 -3.27447,-0.92496 -6.71339,-2.22858 -3.43892,-1.30362 -6.60181,-2.48527 -7.02866,-2.62587 -0.74426,-0.24517 -0.75238,-0.32446 -0.19803,-1.93494 0.82707,-2.40281 1.84525,-7.71291 2.01386,-10.50289 0.35769,-5.91892 -0.87442,-13.02127 -3.21767,-18.54793 -1.55097,-3.65805 -5.41109,-9.54155 -8.03641,-12.24894 -9.95372,-10.26484 -24.02521,-14.75297 -37.79846,-12.05589 l -3.05365,0.59796 2.26988,-0.94115 c 11.57422,-4.79893 24.47476,-5.19939 36.53832,-1.13422 2.81388,0.94821 4.11639,1.58014 8.63947,4.19154 6.12344,3.53537 8.79814,5.68245 13.01775,10.4498 1.32553,1.49759 2.46762,2.70746 2.53799,2.6886 0.0703,-0.0188 1.01921,-1.04006 2.10855,-2.26936 10.22688,-11.54074 24.72657,-17.82782 40.15211,-17.40998 3.1016,0.084 7.40267,0.70131 10.88012,1.56154 2.65321,0.65633 8.40457,2.69329 8.48845,3.00635 0.0259,0.0967 -0.89614,-0.0272 -2.04901,-0.2754 z"
           id="path6056"
           inkscape:connector-curvature="0" />
        <path
           inkscape:connector-curvature="0"
           id="path6058"
           d="m 268.92412,735.18455 c 1.15286,0.24816 3.48648,0.54957 5.18583,0.66982 18.5961,1.3158 35.89443,-10.23174 41.78583,-27.89427 2.63379,-7.89613 2.89794,-15.43051 0.82406,-23.50466 -0.68028,-2.64848 -0.94892,-4.30426 -0.71394,-4.40043 2.47413,-1.01268 11.12003,-4.44242 11.46944,-4.54982 0.25345,-0.0779 3.27448,0.92496 6.7134,2.22858 3.43892,1.30362 6.60181,2.48527 7.02866,2.62587 0.74426,0.24517 0.75238,0.32446 0.19803,1.93494 -0.82707,2.40281 -1.84525,7.71291 -2.01386,10.50289 -0.35769,5.91892 0.87442,13.02127 3.21767,18.54793 1.55097,3.65805 5.41109,9.54155 8.03641,12.24894 9.95372,10.26484 24.02521,14.75297 37.79846,12.05589 l 3.05365,-0.59796 -2.26988,0.94115 c -11.57422,4.79893 -24.47476,5.19939 -36.53832,1.13422 -2.81388,-0.94821 -4.11639,-1.58014 -8.63947,-4.19154 -6.12344,-3.53537 -8.79814,-5.68245 -13.01776,-10.4498 -1.32552,-1.49759 -2.46762,-2.70746 -2.53798,-2.6886 -0.0704,0.0188 -1.01921,1.04006 -2.10855,2.26936 -10.2269,11.54074 -24.72658,17.82782 -40.15212,17.40998 -3.1016,-0.084 -7.40267,-0.70131 -10.88013,-1.56154 -2.65321,-0.65633 -8.40456,-2.69329 -8.48845,-3.00635 -0.0259,-0.0967 0.89615,0.0272 2.04902,0.2754 z"
           style="fill:#000000;fill-opacity:1"
           sodipodi:nodetypes="ssssscscssssscssssssssss" />
        <path
           inkscape:connector-curvature="0"
           id="path6060"
           d="m 467.99009,657.26649 c 0.24816,-1.15286 0.54957,-3.48648 0.66982,-5.18583 1.3158,-18.5961 -10.23174,-35.89443 -27.89427,-41.78583 -7.89613,-2.63379 -15.43051,-2.89794 -23.50466,-0.82406 -2.64848,0.68028 -4.30426,0.94892 -4.40043,0.71394 -1.01268,-2.47413 -4.44242,-11.12002 -4.54982,-11.46943 -0.0779,-0.25345 0.92496,-3.27448 2.22858,-6.7134 1.30362,-3.43892 2.48527,-6.60181 2.62587,-7.02866 0.24517,-0.74426 0.32446,-0.75238 1.93494,-0.19803 2.40281,0.82707 7.71291,1.84525 10.50289,2.01386 5.91892,0.35769 13.02127,-0.87442 18.54793,-3.21767 3.65805,-1.55097 9.54155,-5.41109 12.24894,-8.03641 10.26484,-9.95372 14.75297,-24.02521 12.05589,-37.79846 l -0.59796,-3.05365 0.94115,2.26988 c 4.79893,11.57422 5.19939,24.47476 1.13422,36.53832 -0.94821,2.81388 -1.58014,4.11639 -4.19154,8.63947 -3.53537,6.12344 -5.68245,8.79814 -10.4498,13.01776 -1.49759,1.32552 -2.70746,2.46762 -2.6886,2.53798 0.0188,0.0703 1.04006,1.01921 2.26936,2.10855 11.54074,10.22689 17.82782,24.72657 17.40998,40.15212 -0.084,3.10159 -0.70131,7.40266 -1.56154,10.88012 -0.65633,2.65321 -2.69329,8.40456 -3.00635,8.48845 -0.0967,0.0259 0.0272,-0.89615 0.2754,-2.04902 z"
           style="fill:#000000;fill-opacity:1"
           sodipodi:nodetypes="ssssscscssssscssssssssss" />
        <path
           sodipodi:nodetypes="ssssscscssssscssssssssss"
           style="fill:#000000;fill-opacity:1"
           d="m 191.02238,657.26648 c -0.24816,-1.15286 -0.54957,-3.48648 -0.66982,-5.18583 -1.3158,-18.5961 10.23174,-35.89443 27.89427,-41.78583 7.89613,-2.63379 15.43051,-2.89794 23.50466,-0.82406 2.64848,0.68028 4.30426,0.94892 4.40043,0.71394 1.01268,-2.47413 4.44242,-11.12002 4.54982,-11.46943 0.0779,-0.25345 -0.92496,-3.27448 -2.22858,-6.7134 -1.30362,-3.43892 -2.48527,-6.60181 -2.62587,-7.02866 -0.24517,-0.74426 -0.32446,-0.75238 -1.93494,-0.19803 -2.40281,0.82707 -7.71291,1.84525 -10.50289,2.01386 -5.91892,0.35769 -13.02127,-0.87442 -18.54793,-3.21767 -3.65805,-1.55097 -9.54155,-5.41109 -12.24894,-8.03641 -10.26484,-9.95372 -14.75297,-24.02521 -12.05589,-37.79846 l 0.59796,-3.05365 -0.94115,2.26988 c -4.79893,11.57422 -5.19939,24.47476 -1.13422,36.53832 0.94821,2.81388 1.58014,4.11639 4.19154,8.63947 3.53537,6.12344 5.68245,8.79814 10.4498,13.01776 1.49759,1.32552 2.70746,2.46762 2.6886,2.53798 -0.0188,0.0703 -1.04006,1.01921 -2.26936,2.10855 -11.54074,10.22689 -17.82782,24.72657 -17.40998,40.15212 0.084,3.10159 0.70131,7.40266 1.56154,10.88012 0.65633,2.65321 2.69329,8.40456 3.00635,8.48845 0.0967,0.0259 -0.0272,-0.89615 -0.2754,-2.04902 z"
           id="path6062"
           inkscape:connector-curvature="0"
           inkscape:transform-center-x="192.34789"
           inkscape:transform-center-y="-2.6964658" />
      </g>
    </g>
  </g>
</svg>
