<?xml version="1.0" encoding="UTF-8" standalone="no"?>
<!-- Created with Inkscape (http://www.inkscape.org/) -->

<svg
   xmlns:dc="http://purl.org/dc/elements/1.1/"
   xmlns:cc="http://creativecommons.org/ns#"
   xmlns:rdf="http://www.w3.org/1999/02/22-rdf-syntax-ns#"
   xmlns:svg="http://www.w3.org/2000/svg"
   xmlns="http://www.w3.org/2000/svg"
   xmlns:sodipodi="http://sodipodi.sourceforge.net/DTD/sodipodi-0.dtd"
   xmlns:inkscape="http://www.inkscape.org/namespaces/inkscape"
   width="210mm"
   height="297mm"
   viewBox="0 0 744.09448819 1052.3622047"
   id="svg2"
   version="1.1"
   inkscape:version="0.91 r13725"
   sodipodi:docname="arbol-navidad-modelo.svg">
  <defs
     id="defs4" />
  <sodipodi:namedview
     id="base"
     pagecolor="#ffffff"
     bordercolor="#666666"
     borderopacity="1.0"
     inkscape:pageopacity="0.0"
     inkscape:pageshadow="2"
     inkscape:zoom="0.7"
     inkscape:cx="239.96118"
     inkscape:cy="637.64022"
     inkscape:document-units="px"
     inkscape:current-layer="layer1"
     showgrid="false"
     inkscape:window-width="1855"
     inkscape:window-height="1056"
     inkscape:window-x="69"
     inkscape:window-y="1048"
     inkscape:window-maximized="1" />
  <metadata
     id="metadata7">
    <rdf:RDF>
      <cc:Work
         rdf:about="">
        <dc:format>image/svg+xml</dc:format>
        <dc:type
           rdf:resource="http://purl.org/dc/dcmitype/StillImage" />
        <dc:title></dc:title>
      </cc:Work>
    </rdf:RDF>
  </metadata>
  <g
     inkscape:label="Layer 1"
     inkscape:groupmode="layer"
     id="layer1">
    <rect
       style="opacity:1;fill:#000000;fill-opacity:1;stroke:#000000;stroke-width:0.99999994;stroke-linecap:round;stroke-linejoin:round;stroke-miterlimit:4;stroke-dasharray:none;stroke-dashoffset:0;stroke-opacity:1"
       id="rect4204"
       width="692.85712"
       height="787.14282"
       x="19.999998"
       y="6.6479154" />
    <rect
       style="opacity:1;fill:#aa4400;fill-opacity:1;stroke:#000000;stroke-width:1;stroke-linecap:round;stroke-linejoin:round;stroke-miterlimit:4;stroke-dasharray:none;stroke-dashoffset:0;stroke-opacity:1"
       id="rect4146"
       width="78.571426"
       height="231.42856"
       x="324.28571"
       y="478.07648" />
    <path
       style="fill:#008000;fill-rule:evenodd;stroke:#000000;stroke-width:1px;stroke-linecap:butt;stroke-linejoin:miter;stroke-opacity:1"
       d="M 58.106726,539.81199 305.08676,415.60089 90.604096,457.00459 333.68445,265.5125 167.2979,299.153 346.68339,149.06461 268.6897,162.00327 366.18182,97.309987 446.77529,165.88485 379.18077,149.06461 544.26742,296.56527 406.47856,259.04316 585.86406,445.3598 405.17867,414.30703 635.26007,539.16505 Z"
       id="path4144"
       inkscape:connector-curvature="0"
       sodipodi:nodetypes="cccccccccccccccc" />
    <path
       sodipodi:type="star"
       style="opacity:1;fill:#ffff00;fill-opacity:1;stroke:#000000;stroke-width:0.66532481;stroke-linecap:round;stroke-linejoin:round;stroke-miterlimit:4;stroke-dasharray:none;stroke-dashoffset:0;stroke-opacity:1"
       id="path4179"
       sodipodi:sides="6"
       sodipodi:cx="150.51273"
       sodipodi:cy="521.02197"
       sodipodi:r1="34.478622"
       sodipodi:r2="15.205349"
       sodipodi:arg1="0.55549374"
       sodipodi:arg2="1.0790925"
       inkscape:flatsided="false"
       inkscape:rounded="0"
       inkscape:randomized="0"
       d="m 179.80715,539.20472 -22.11554,-4.77878 -8.27839,21.05712 -6.91923,-21.54201 -22.37519,3.35926 15.19631,-16.76323 -14.09681,-17.69785 22.11555,4.77878 8.27838,-21.05712 6.91923,21.54201 22.3752,-3.35927 -15.19632,16.76323 z"
       inkscape:transform-center-x="1.3546203"
       inkscape:transform-center-y="1.2276183"
       transform="matrix(1.5035061,0,0,1.5025444,138.51939,-695.04638)" />
    <path
       sodipodi:type="star"
       style="opacity:1;fill:#ffff00;fill-opacity:1;stroke:#000000;stroke-width:1.2752229;stroke-linecap:round;stroke-linejoin:round;stroke-miterlimit:4;stroke-dasharray:none;stroke-dashoffset:0;stroke-opacity:1"
       id="path4148"
       sodipodi:sides="6"
       sodipodi:cx="150.51273"
       sodipodi:cy="521.02197"
       sodipodi:r1="34.478622"
       sodipodi:r2="15.205349"
       sodipodi:arg1="0.55549374"
       sodipodi:arg2="1.0790925"
       inkscape:flatsided="false"
       inkscape:rounded="0"
       inkscape:randomized="0"
       d="m 179.80715,539.20472 -22.11554,-4.77878 -8.27839,21.05712 -6.91923,-21.54201 -22.37519,3.35926 15.19631,-16.76323 -14.09681,-17.69785 22.11555,4.77878 8.27838,-21.05712 6.91923,21.54201 22.3752,-3.35927 -15.19632,16.76323 z"
       inkscape:transform-center-x="0.70633527"
       inkscape:transform-center-y="0.64086228"
       transform="matrix(0.78397037,0,0,0.78438293,123.93401,100.87022)" />
    <path
       transform="matrix(0.78397037,0,0,0.78438293,214.84774,67.535186)"
       inkscape:transform-center-y="0.64086228"
       inkscape:transform-center-x="0.70633527"
       d="m 179.80715,539.20472 -22.11554,-4.77878 -8.27839,21.05712 -6.91923,-21.54201 -22.37519,3.35926 15.19631,-16.76323 -14.09681,-17.69785 22.11555,4.77878 8.27838,-21.05712 6.91923,21.54201 22.3752,-3.35927 -15.19632,16.76323 z"
       inkscape:randomized="0"
       inkscape:rounded="0"
       inkscape:flatsided="false"
       sodipodi:arg2="1.0790925"
       sodipodi:arg1="0.55549374"
       sodipodi:r2="15.205349"
       sodipodi:r1="34.478622"
       sodipodi:cy="521.02197"
       sodipodi:cx="150.51273"
       sodipodi:sides="6"
       id="path4150"
       style="opacity:1;fill:#ffff00;fill-opacity:1;stroke:#000000;stroke-width:1.2752229;stroke-linecap:round;stroke-linejoin:round;stroke-miterlimit:4;stroke-dasharray:none;stroke-dashoffset:0;stroke-opacity:1"
       sodipodi:type="star" />
    <path
       sodipodi:type="star"
       style="opacity:1;fill:#ffff00;fill-opacity:1;stroke:#000000;stroke-width:1.2752229;stroke-linecap:round;stroke-linejoin:round;stroke-miterlimit:4;stroke-dasharray:none;stroke-dashoffset:0;stroke-opacity:1"
       id="path4152"
       sodipodi:sides="6"
       sodipodi:cx="150.51273"
       sodipodi:cy="521.02197"
       sodipodi:r1="34.478622"
       sodipodi:r2="15.205349"
       sodipodi:arg1="0.55549374"
       sodipodi:arg2="1.0790925"
       inkscape:flatsided="false"
       inkscape:rounded="0"
       inkscape:randomized="0"
       d="m 179.80715,539.20472 -22.11554,-4.77878 -8.27839,21.05712 -6.91923,-21.54201 -22.37519,3.35926 15.19631,-16.76323 -14.09681,-17.69785 22.11555,4.77878 8.27838,-21.05712 6.91923,21.54201 22.3752,-3.35927 -15.19632,16.76323 z"
       inkscape:transform-center-x="0.70633527"
       inkscape:transform-center-y="0.64086228"
       transform="matrix(0.78397037,0,0,0.78438293,171.41118,-58.733882)" />
    <path
       transform="matrix(0.78397037,0,0,0.78438293,305.76147,-66.815103)"
       inkscape:transform-center-y="0.64086228"
       inkscape:transform-center-x="0.70633527"
       d="m 179.80715,539.20472 -22.11554,-4.77878 -8.27839,21.05712 -6.91923,-21.54201 -22.37519,3.35926 15.19631,-16.76323 -14.09681,-17.69785 22.11555,4.77878 8.27838,-21.05712 6.91923,21.54201 22.3752,-3.35927 -15.19632,16.76323 z"
       inkscape:randomized="0"
       inkscape:rounded="0"
       inkscape:flatsided="false"
       sodipodi:arg2="1.0790925"
       sodipodi:arg1="0.55549374"
       sodipodi:r2="15.205349"
       sodipodi:r1="34.478622"
       sodipodi:cy="521.02197"
       sodipodi:cx="150.51273"
       sodipodi:sides="6"
       id="path4154"
       style="opacity:1;fill:#ffff00;fill-opacity:1;stroke:#000000;stroke-width:1.2752229;stroke-linecap:round;stroke-linejoin:round;stroke-miterlimit:4;stroke-dasharray:none;stroke-dashoffset:0;stroke-opacity:1"
       sodipodi:type="star" />
    <path
       sodipodi:type="star"
       style="opacity:1;fill:#ffff00;fill-opacity:1;stroke:#000000;stroke-width:1.2752229;stroke-linecap:round;stroke-linejoin:round;stroke-miterlimit:4;stroke-dasharray:none;stroke-dashoffset:0;stroke-opacity:1"
       id="path4156"
       sodipodi:sides="6"
       sodipodi:cx="150.51273"
       sodipodi:cy="521.02197"
       sodipodi:r1="34.478622"
       sodipodi:r2="15.205349"
       sodipodi:arg1="0.55549374"
       sodipodi:arg2="1.0790925"
       inkscape:flatsided="false"
       inkscape:rounded="0"
       inkscape:randomized="0"
       d="m 179.80715,539.20472 -22.11554,-4.77878 -8.27839,21.05712 -6.91923,-21.54201 -22.37519,3.35926 15.19631,-16.76323 -14.09681,-17.69785 22.11555,4.77878 8.27838,-21.05712 6.91923,21.54201 22.3752,-3.35927 -15.19632,16.76323 z"
       inkscape:transform-center-x="0.70633527"
       inkscape:transform-center-y="0.64086228"
       transform="matrix(0.78397037,0,0,0.78438293,345.15742,79.657016)" />
    <path
       transform="matrix(0.78397037,0,0,0.78438293,281.51781,-176.92173)"
       inkscape:transform-center-y="0.64086228"
       inkscape:transform-center-x="0.70633527"
       d="m 179.80715,539.20472 -22.11554,-4.77878 -8.27839,21.05712 -6.91923,-21.54201 -22.37519,3.35926 15.19631,-16.76323 -14.09681,-17.69785 22.11555,4.77878 8.27838,-21.05712 6.91923,21.54201 22.3752,-3.35927 -15.19632,16.76323 z"
       inkscape:randomized="0"
       inkscape:rounded="0"
       inkscape:flatsided="false"
       sodipodi:arg2="1.0790925"
       sodipodi:arg1="0.55549374"
       sodipodi:r2="15.205349"
       sodipodi:r1="34.478622"
       sodipodi:cy="521.02197"
       sodipodi:cx="150.51273"
       sodipodi:sides="6"
       id="path4158"
       style="opacity:1;fill:#ffff00;fill-opacity:1;stroke:#000000;stroke-width:1.2752229;stroke-linecap:round;stroke-linejoin:round;stroke-miterlimit:4;stroke-dasharray:none;stroke-dashoffset:0;stroke-opacity:1"
       sodipodi:type="star" />
    <path
       style="opacity:1;fill:#ff0000;fill-opacity:1;stroke:#000000;stroke-width:1;stroke-linecap:round;stroke-linejoin:round;stroke-miterlimit:4;stroke-dasharray:none;stroke-dashoffset:0;stroke-opacity:1"
       id="path4160"
       sodipodi:type="arc"
       sodipodi:cx="191.42389"
       sodipodi:cy="411.42041"
       sodipodi:rx="23.738577"
       sodipodi:ry="23.738577"
       sodipodi:start="0.043503902"
       sodipodi:end="0.024128479"
       sodipodi:open="true"
       d="m 215.14001,412.45281 a 23.738577,23.738577 0 0 1 -24.63363,22.68844 23.738577,23.738577 0 0 1 -22.8075,-24.52344 23.738577,23.738577 0 0 1 24.41267,-22.92601 23.738577,23.738577 0 0 1 23.04401,24.30133" />
    <path
       d="m 276.75931,254.869 a 23.738577,23.738577 0 0 1 -24.63362,22.68845 23.738577,23.738577 0 0 1 -22.8075,-24.52344 23.738577,23.738577 0 0 1 24.41267,-22.92602 23.738577,23.738577 0 0 1 23.044,24.30134"
       sodipodi:open="true"
       sodipodi:end="0.024128479"
       sodipodi:start="0.043503902"
       sodipodi:ry="23.738577"
       sodipodi:rx="23.738577"
       sodipodi:cy="253.83661"
       sodipodi:cx="253.0432"
       sodipodi:type="arc"
       id="path4162"
       style="opacity:1;fill:#ff0000;fill-opacity:1;stroke:#000000;stroke-width:1;stroke-linecap:round;stroke-linejoin:round;stroke-miterlimit:4;stroke-dasharray:none;stroke-dashoffset:0;stroke-opacity:1" />
    <path
       style="opacity:1;fill:#ff0000;fill-opacity:1;stroke:#000000;stroke-width:1;stroke-linecap:round;stroke-linejoin:round;stroke-miterlimit:4;stroke-dasharray:none;stroke-dashoffset:0;stroke-opacity:1"
       id="path4164"
       sodipodi:type="arc"
       sodipodi:cx="495.4798"
       sodipodi:cy="269.99905"
       sodipodi:rx="23.738577"
       sodipodi:ry="23.738577"
       sodipodi:start="0.043503902"
       sodipodi:end="0.024128479"
       sodipodi:open="true"
       d="m 519.19591,271.03145 a 23.738577,23.738577 0 0 1 -24.63362,22.68844 23.738577,23.738577 0 0 1 -22.8075,-24.52343 23.738577,23.738577 0 0 1 24.41267,-22.92602 23.738577,23.738577 0 0 1 23.044,24.30133" />
    <path
       d="m 555.56139,412.45281 a 23.738577,23.738577 0 0 1 -24.63362,22.68844 23.738577,23.738577 0 0 1 -22.8075,-24.52344 23.738577,23.738577 0 0 1 24.41267,-22.92601 23.738577,23.738577 0 0 1 23.044,24.30133"
       sodipodi:open="true"
       sodipodi:end="0.024128479"
       sodipodi:start="0.043503902"
       sodipodi:ry="23.738577"
       sodipodi:rx="23.738577"
       sodipodi:cy="411.42041"
       sodipodi:cx="531.84528"
       sodipodi:type="arc"
       id="path4166"
       style="opacity:1;fill:#ff0000;fill-opacity:1;stroke:#000000;stroke-width:1;stroke-linecap:round;stroke-linejoin:round;stroke-miterlimit:4;stroke-dasharray:none;stroke-dashoffset:0;stroke-opacity:1" />
    <path
       style="opacity:1;fill:#ff0000;fill-opacity:1;stroke:#000000;stroke-width:1;stroke-linecap:round;stroke-linejoin:round;stroke-miterlimit:4;stroke-dasharray:none;stroke-dashoffset:0;stroke-opacity:1"
       id="path4168"
       sodipodi:type="arc"
       sodipodi:cx="566.19049"
       sodipodi:cy="520.51691"
       sodipodi:rx="23.738577"
       sodipodi:ry="23.738577"
       sodipodi:start="0.043503902"
       sodipodi:end="0.024128479"
       sodipodi:open="true"
       d="m 589.90661,521.5493 a 23.738577,23.738577 0 0 1 -24.63363,22.68845 23.738577,23.738577 0 0 1 -22.80749,-24.52344 23.738577,23.738577 0 0 1 24.41267,-22.92602 23.738577,23.738577 0 0 1 23.044,24.30134" />
    <path
       d="m 186.85573,522.55943 a 23.738577,23.738577 0 0 1 -24.63362,22.68845 23.738577,23.738577 0 0 1 -22.8075,-24.52344 23.738577,23.738577 0 0 1 24.41267,-22.92602 23.738577,23.738577 0 0 1 23.04401,24.30134"
       sodipodi:open="true"
       sodipodi:end="0.024128479"
       sodipodi:start="0.043503902"
       sodipodi:ry="23.738577"
       sodipodi:rx="23.738577"
       sodipodi:cy="521.52704"
       sodipodi:cx="163.13962"
       sodipodi:type="arc"
       id="path4181"
       style="opacity:1;fill:#ff0000;fill-opacity:1;stroke:#000000;stroke-width:1;stroke-linecap:round;stroke-linejoin:round;stroke-miterlimit:4;stroke-dasharray:none;stroke-dashoffset:0;stroke-opacity:1" />
    <path
       sodipodi:type="star"
       style="opacity:1;fill:#ffff00;fill-opacity:1;stroke:#000000;stroke-width:1.2752229;stroke-linecap:round;stroke-linejoin:round;stroke-miterlimit:4;stroke-dasharray:none;stroke-dashoffset:0;stroke-opacity:1"
       id="path4183"
       sodipodi:sides="6"
       sodipodi:cx="150.51273"
       sodipodi:cy="521.02197"
       sodipodi:r1="34.478622"
       sodipodi:r2="15.205349"
       sodipodi:arg1="0.55549374"
       sodipodi:arg2="1.0790925"
       inkscape:flatsided="false"
       inkscape:rounded="0"
       inkscape:randomized="0"
       d="m 179.80715,539.20472 -22.11554,-4.77878 -8.27839,21.05712 -6.91923,-21.54201 -22.37519,3.35926 15.19631,-16.76323 -14.09681,-17.69785 22.11555,4.77878 8.27838,-21.05712 6.91923,21.54201 22.3752,-3.35927 -15.19632,16.76323 z"
       inkscape:transform-center-x="0.70633527"
       inkscape:transform-center-y="0.64086228"
       transform="matrix(0.78397037,0,0,0.78438293,226.96957,-99.139984)" />
  </g>
</svg>
